<svg viewBox="0 0 250 244" width="250px" height="244px" xmlns="http://www.w3.org/2000/svg">
  <defs></defs>
  <g transform="matrix(0.08761, 0, 0, -0.08761, 232.376236, 279.25238)" id="g10">
    <g transform="matrix(0.1, 0, 0, 0.1, -3249.750977, -137.933868)" id="g12">
      <g transform="scale(1.79106)" id="g18">
        <path id="path20" style="fill:#ffffff;fill-opacity:1;fill-rule:nonzero;stroke:none" d="M 16300,9613.33 V 4838.15 c 0,-519.3 -420.9,-940.39 -940.2,-940.39 H 11009 c -519.5,0 -940.4,421.09 -940.4,940.39 v 4775.18 c 0,183.19 52.2,354.26 142.9,498.67 166.3,265.5 461.1,441.7 797.5,441.7 h 4350.8 c 359.7,0 672.2,-201.8 830.3,-498.6 70.1,-131.79 109.9,-282.2 109.9,-441.77"></path>
      </g>
      <g transform="scale(1.80288)" id="g22">
        <path id="path24" style="fill:#371a45;fill-opacity:1;fill-rule:nonzero;stroke:none" d="m 11012.6,10377.8 c -498.1,0 -903.3,-405.27 -903.3,-903.37 V 4882.46 c 0,-498.09 405.2,-903.33 903.3,-903.33 H 15183 c 498.1,0 903.3,405.24 903.3,903.33 v 4591.97 c 0,498.1 -405.2,903.37 -903.3,903.37 H 11012.6 M 15183,3765.47 h -4170.4 c -615.9,0 -1116.9,501.09 -1116.9,1116.99 v 4591.97 c 0,615.87 501,1116.97 1116.9,1116.97 H 15183 c 615.9,0 1117,-501.1 1117,-1116.97 V 4882.46 c 0,-615.9 -501.1,-1116.99 -1117,-1116.99"></path>
      </g>
      <g transform="scale(1.53424)" id="g26">
        <path id="path28" style="fill:#ffffff;fill-opacity:1;fill-rule:nonzero;stroke:none" d="m 13232.1,11886.7 c 0,0 -2576.1,-708.7 -2958,-6617.71 H 16300 l -357.1,6980.11 -2710.8,-362.4"></path>
      </g>
      <g transform="scale(1.11972)" id="g30">
        <path id="path32" style="fill:#cdc6d0;fill-opacity:1;fill-rule:nonzero;stroke:none" d="m 16137.3,7715.39 h -881.2 c -37.7,208.88 -220.4,367.32 -440.1,367.32 h -398 c 0,0.09 0,0.09 0.1,0.18 h 191.2 l -10.7,165.57 c 339.1,277.39 770.5,503.79 1066.6,1186.55 80.5,185.58 169.3,355.26 265.3,509.85 h 66.7 c -4.1,-201.03 59.4,-400.27 181,-559.42 36.7,-47.96 77.5,-91.36 121.8,-129.76 -26.9,-236.14 -53,-472.35 -78.1,-708.66 -29.3,-277.3 -57.6,-554.33 -84.6,-831.63"></path>
      </g>
      <g transform="scale(1.54667)" id="g34">
        <path id="path36" style="fill:#371a45;fill-opacity:1;fill-rule:nonzero;stroke:none" d="m 10324.8,5351.09 h 5713.1 l -340.5,6658.11 -2545,-340.2 c -69.2,-22.5 -652.1,-232.5 -1269.1,-1059.4 C 11283.5,9805.75 10531,8243.3 10324.8,5351.09 M 16300,5102.11 h -6241.3 l 8.6,132.54 c 197.7,3058.63 997.7,4704.87 1634,5547.35 703.6,931.5 1363.6,1121.5 1391.4,1129.2 l 16.5,3.3 2823,377.4 367.8,-7189.79"></path>
      </g>
      <g transform="scale(2.01938)" id="g38">
        <path id="path40" style="fill:#ffffff;fill-opacity:1;fill-rule:nonzero;stroke:none" d="m 15996.6,4531.44 c -293.2,-620.64 -877.1,-167.97 -877.1,-167.97 0,0 -21.8,-17.24 -189.8,-53.38 -956,-206.36 -1586.2,350.99 -1586.2,350.99 0,0 -211.2,-195.75 -418.6,-190.05 -178,4.85 -300.3,82.69 -361.8,201.29 -114,219.82 -26.7,402.16 159.6,702.25 176.2,284.19 690.5,581.42 1434,488.81 v 0.45 c 41.9,517.48 -619.1,1096.92 -1125.3,1461.14 -308,221.55 -558.5,363.77 -558.5,363.77 l 798.8,1873 C 16086.1,7205.92 16300,5173.52 15996.6,4531.44"></path>
      </g>
      <g transform="scale(1.86369)" id="g42">
        <path id="path44" style="fill:#cdc6d0;fill-opacity:1;fill-rule:nonzero;stroke:none" d="m 16300,6003.48 c -9.7,7.13 -210.3,155.98 -556.2,262.75 -70.9,103.88 -177.1,178.47 -299.5,207.55 -45.7,326.93 -95.9,653.33 -152.2,978.97 -41,235.99 -85.8,471.86 -144,704.79 200.2,-299.57 390.8,-668.57 528.6,-931.65 339.4,-648.12 619.5,-1212.33 623.3,-1222.41"></path>
      </g>
      <g transform="scale(1.98253)" id="g46">
        <path id="path48" style="fill:#cdc6d0;fill-opacity:1;fill-rule:nonzero;stroke:none" d="m 15841.9,4379.31 c -194.4,0 -379.9,140.43 -381.9,141.94 l -59.8,46.3 -51.4,-40.15 c -12.7,-4.89 -54.5,-19.06 -162,-42.27 -143.1,-30.87 -278.9,-43.88 -406.2,-43.88 -24.7,0 -49.2,0.51 -73.3,1.41 -11.5,128.68 -23.7,257.25 -37.7,385.67 -5.3,49.79 -10.7,99.52 -16.1,149.31 132.1,0.55 273,14.47 421.7,46.55 171.1,37.08 193.1,54.38 193.1,54.38 0,0 251,-130.64 543.6,-130.69 161.8,0 336.3,40 488.1,164.03 -7.9,-195.06 -43.8,-348.75 -93.9,-454.72 -70.9,-150.22 -164.9,-240.4 -279.2,-268.1 -28.2,-6.81 -56.7,-9.78 -85,-9.78"></path>
      </g>
      <g transform="scale(2.01636)" id="g50">
        <path id="path52" style="fill:#371a45;fill-opacity:1;fill-rule:nonzero;stroke:none" d="m 15577.2,4115 c -193.7,-0.05 -368,95.92 -447.9,147.59 -33.2,-10.36 -82.5,-23.36 -157,-39.43 -827.9,-178.64 -1418.3,183.16 -1607.8,322.57 -87.4,-65.47 -252.7,-169.22 -422.7,-163.52 -205,5.61 -362.9,95.52 -444.7,253.08 -140.4,270.84 -26.4,491.73 163.4,797.83 191.4,308.18 712.1,599.4 1420.6,544.84 -68.3,618.79 -1187.5,1384.38 -1636.7,1639.2 -45.8,26.03 -62,84.31 -35.9,130.18 26,45.88 84.3,61.95 130.2,36.01 73.8,-41.86 1806.5,-1034.79 1734.5,-1918.86 l -8.1,-99.34 -98.9,12.3 c -680.6,84.61 -1173.5,-171.4 -1343.4,-445.06 -189.7,-305.85 -241.8,-443.87 -156.1,-609.12 49,-94.52 146,-146.45 280.3,-150.12 137.7,-3.87 300.4,117.94 351.7,165.1 l 63.4,58.42 64.7,-57.03 c 5.8,-5.11 609.4,-522.97 1505.2,-329.75 105.7,22.81 146.8,36.75 159.3,41.56 l 50.6,39.47 58.7,-45.52 c 2.2,-1.74 241.5,-182.71 459.1,-129.94 112.4,27.23 204.8,115.9 274.5,263.59 135.6,286.96 165.8,929.95 -195.3,1797.8 -298.9,718.38 -976.8,1843.82 -2508.6,3126.09 -40.5,33.87 -45.9,94.08 -12,134.55 33.8,40.46 94.1,45.82 134.5,11.95 1561.5,-1307.06 2255.4,-2461.17 2562.4,-3199.19 384.8,-924.64 351.4,-1615.04 191.8,-1952.78 -95.9,-202.99 -231.7,-326.78 -403.5,-367.94 -42.5,-10.17 -84.9,-14.53 -126.3,-14.53"></path>
      </g>
      <g transform="scale(1.78391)" id="g54">
        <path id="path56" style="fill:#ffffff;fill-opacity:1;fill-rule:nonzero;stroke:none" d="M 10834.9,8964.59 C 10402.1,7046.83 10174.3,4140.85 10174.3,4140.85 H 16300 c 0,0 -227.8,2905.98 -660.6,4823.74 0,0 -1030.5,2022.51 -2402.2,2022.51 -1371.8,0 -2402.3,-2022.51 -2402.3,-2022.51"></path>
      </g>
      <g transform="scale(1.76421)" id="g58">
        <path id="path60" style="fill:#cdc6d0;fill-opacity:1;fill-rule:nonzero;stroke:none" d="m 16300,4896.85 h -797.1 -4028.2 -1013.2 c 16.4,168.35 33.6,336.64 51.4,504.76 12.9,120.91 26.1,241.75 39.7,362.54 23.4,-6.29 47.4,-10.99 71.8,-14.11 186.4,-23.41 403.9,-42.12 622.9,-42.12 106.8,0 213.9,4.42 317.8,15.02 v -22.16 c 0,-319.07 259.6,-578.61 578.7,-578.61 h 979.5 v 0 0 h 1437.6 c 319.1,0 578.7,259.54 578.7,578.61 v 47.16 c 156.8,-28.85 326.6,-40.02 495.6,-40.02 199.7,0 398.3,15.59 573,36.11 13.1,-114.5 25.8,-229 38,-343.55 l 53.8,-503.63"></path>
      </g>
      <g transform="scale(1.79649)" id="g62">
        <path id="path64" style="fill:#371a45;fill-opacity:1;fill-rule:nonzero;stroke:none" d="m 10863.6,8878.2 c -86.6,-390.71 -159.2,-785.53 -225,-1181.7 -64.7,-396.43 -121.2,-794.54 -173.8,-1193.27 -51.7,-398.83 -98.1,-798.55 -140.8,-1198.67 -42.3,-399.94 -81.4,-801.17 -114.1,-1201.06 l -106.9,115.56 h 6082.8 v 0 l -106.8,-115.56 -60.5,599.89 -64.2,600.06 c -42.6,400.06 -91.3,799.39 -140.9,1198.39 -25.8,199.34 -50.7,398.89 -79.2,597.78 -26.3,199.33 -56.3,397.89 -86,596.55 -63.1,396.83 -128.8,791.77 -170.6,1193.83 l -0.1,0.44 c -3.1,29.62 18.5,56.11 48.1,59.23 25.4,2.62 48.5,-12.91 56.6,-36.07 132.8,-385.19 212.8,-783.53 281.8,-1182.08 69.1,-398.72 129.1,-798.67 183.3,-1199.28 54,-400.56 98.4,-802.24 141.4,-1203.91 21.8,-200.83 39.8,-402 57.2,-603.28 17.7,-201.34 34.1,-402.29 46.8,-604.8 l 7.3,-115.55 h -114.2 v 0 H 10103 9986.69 l 9.46,115.55 c 33.05,403.74 72.25,805.07 114.65,1206.97 42.8,401.62 89.5,802.9 141.4,1203.68 52.8,400.61 109.7,800.89 174.8,1200.28 66.3,399.23 139.5,797.67 227.4,1194.22 12.9,57.78 70.1,94.24 127.9,81.44 57.8,-12.81 94.3,-70.08 81.5,-127.86 l -0.2,-0.78"></path>
      </g>
      <g transform="scale(1.29857)" id="g66">
        <path id="path68" style="fill:#ffffff;fill-opacity:1;fill-rule:nonzero;stroke:none" d="m 16300,8061.56 c -512.7,-215.62 -1306.3,-170.5 -1847.3,-102.5 -324.5,40.82 -552.2,351.77 -504.4,687.53 v 0 c 43.6,306.41 303.3,529.27 601.2,514.72 506.1,-24.57 1265,-36.12 1745.7,74.62 l 4.8,-1174.37"></path>
      </g>
      <g transform="scale(1.25174)" id="g70">
        <path id="path72" style="fill:#cdc6d0;fill-opacity:1;fill-rule:nonzero;stroke:none" d="m 15847.9,8352.84 c -253.2,0 -533.9,18.77 -835.3,56.64 -117,14.7 -222.3,76.05 -296.2,172.8 -68.8,90.27 -103.1,200.04 -98.7,313.72 h 217.4 c 49.4,-21.25 102.5,-35.95 158.2,-43.06 250.9,-31.48 554.2,-58.24 860.5,-58.24 150,0 300.6,6.39 446.2,21.81 v -440.59 c -138.3,-15.42 -289.6,-23.08 -452.1,-23.08"></path>
      </g>
      <g transform="scale(1.33426)" id="g74">
        <path id="path76" style="fill:#371a45;fill-opacity:1;fill-rule:nonzero;stroke:none" d="m 15864,7845.9 h 0.3 -0.3 m -1730.5,926.65 c -207.6,0 -384.3,-159.04 -415.4,-377.58 -17.7,-123.89 13.7,-245.83 88.2,-343.49 69.3,-90.76 168,-148.32 277.8,-162.11 750,-94.28 1362.3,-62.43 1723.9,89.56 v 0 c 68.3,28.71 119,128.39 138.9,273.41 36.4,264.12 -38.2,517.96 -88.9,588.34 -476.4,-101.78 -1186.8,-93.76 -1704.7,-68.58 -6.6,0.3 -13.3,0.45 -19.8,0.45 m 738.1,-1225.32 c -289.6,0 -577.2,24.74 -823.6,55.69 -187.2,23.54 -354.5,120.67 -471.1,273.41 -120.2,157.31 -172.9,361.17 -144.6,559.33 53.2,373.92 367.7,642.08 735.1,624.77 723.8,-35.23 1313.2,-10.72 1659.5,69.1 71.2,16.26 248.3,19.04 354.2,-309.08 118.9,-368.37 94.2,-958.13 -261.2,-1107.58 v -0.08 c -294.9,-123.88 -673.1,-165.56 -1048.3,-165.56"></path>
      </g>
      <g transform="scale(1.8022)" id="g78">
        <path id="path80" style="fill:#ffffff;fill-opacity:1;fill-rule:nonzero;stroke:none" d="m 14571,5808.75 c 369.4,-155.37 941.2,-122.85 1331,-73.86 233.9,29.41 398,253.47 363.5,495.4 v 0 c -31.4,220.78 -218.5,381.36 -433.2,370.88 -364.6,-17.7 -911.5,-26.03 -1257.9,53.77 l -3.4,-846.19"></path>
      </g>
      <g transform="scale(1.78813)" id="g82">
        <path id="path84" style="fill:#b9afbe;fill-opacity:1;fill-rule:nonzero;stroke:none" d="m 15428.9,5847.17 c -187,0 -352.7,14.66 -491.8,43.62 v 306.25 c 152.9,-30.03 320.9,-41.39 487.7,-41.39 214.4,0 426.7,18.79 602.5,40.83 97,12.24 182.3,57.99 246.6,124.48 5.8,-18.23 10.2,-37.18 13,-56.81 13.1,-92.45 -10.3,-183.44 -65.9,-256.31 -51.8,-67.72 -125.3,-110.67 -207.3,-120.96 -211,-26.56 -407.5,-39.71 -584.8,-39.71"></path>
      </g>
      <g transform="scale(1.81239)" id="g86">
        <path id="path88" style="fill:#371a45;fill-opacity:1;fill-rule:nonzero;stroke:none" d="m 14530.2,5874.02 c 266.3,-111.95 717,-135.34 1269.2,-65.93 80.9,10.15 153.4,52.53 204.5,119.34 54.9,71.9 77.9,161.67 65,252.88 -23.6,166.02 -161.7,285.42 -320.4,277.64 -381.3,-18.59 -904.3,-24.44 -1255,50.49 -37.4,-51.82 -92.3,-238.69 -65.5,-433.13 14.7,-106.77 52,-180.15 102.2,-201.29 v 0 m 689.5,-317.81 c -276.3,0 -554.7,30.62 -771.8,121.89 v 0.05 c -261.7,110.02 -279.8,544.2 -192.3,815.39 78,241.56 208.3,239.57 260.7,227.55 254.9,-58.77 688.8,-76.81 1221.8,-50.88 270.2,12.97 502,-184.67 541.2,-459.94 20.7,-145.94 -18.1,-296.02 -106.5,-411.84 -85.9,-112.45 -209.1,-183.9 -346.9,-201.22 -181.3,-22.79 -393.2,-41 -606.2,-41"></path>
      </g>
      <g transform="scale(1.62681)" id="g90">
        <path id="path92" style="fill:#ffffff;fill-opacity:1;fill-rule:nonzero;stroke:none" d="M 16300,7682.21 V 6179.89 c 0,-278.83 -219.6,-506.89 -487.8,-506.89 h -2664 c -268.4,0 -487.7,228.06 -487.7,506.89 v 1502.32 c 0,278.52 219.3,506.58 487.7,506.58 h 2664 c 214.3,0 397.6,-145.63 462.7,-346.32 16.1,-50.41 25.1,-104.26 25.1,-160.26"></path>
      </g>
      <g transform="scale(1.61499)" id="g94">
        <path id="path96" style="fill:#cdc6d0;fill-opacity:1;fill-rule:nonzero;stroke:none" d="m 15906.3,5833.89 h -1451.2 v 443.84 c 196.3,11.4 397.5,48.61 598.8,120.75 108.9,39.01 221.7,101.05 330.1,172.57 47.4,-19.01 98.9,-29.48 152.8,-29.48 205.3,0 376.5,151.71 415.4,353.01 0.1,-0.13 0.1,-0.25 0.1,-0.37 5.5,28.23 8.3,57.33 8.3,87.36 0,22.36 -1.6,44.34 -4.7,65.83 40.3,40.18 63.2,64.76 63.2,64.76 0,0 19.6,-570.65 100.8,-570.65 0.7,0 1.3,0 1.9,0.06 88.3,9.79 142.5,188.12 178.2,413.38 v -727.43 c 0,-217.03 -176.6,-393.63 -393.7,-393.63 m -1689.7,0 h -950.7 c -217.1,0 -393.7,176.6 -393.7,393.63 v 441.24 c 325.9,-172.57 808.5,-369.36 1344.4,-392.57 v -442.3"></path>
      </g>
      <g transform="scale(1.63862)" id="g98">
        <path id="path100" style="fill:#371a45;fill-opacity:1;fill-rule:nonzero;stroke:none" d="m 13074.6,8012.23 c -214,0 -388,-173.99 -388,-387.95 V 6137.73 c 0,-213.9 174,-387.95 388,-387.95 H 15677 c 213.9,0 388,174.05 388,387.95 v 1486.55 c 0,213.96 -174.1,387.95 -388,387.95 H 13074.6 M 15677,5514.76 h -2602.4 c -343.6,0 -623,279.45 -623,622.97 v 1486.55 c 0,343.53 279.4,623.03 623,623.03 H 15677 c 343.6,0 623,-279.5 623,-623.03 V 6137.73 c 0,-343.52 -279.4,-622.97 -623,-622.97"></path>
      </g>
      <g transform="scale(1.58136)" id="g102">
        <path id="path104" style="fill:#22a7f0;fill-opacity:1;fill-rule:nonzero;stroke:none" d="m 16300,7130.21 c 0,-248.27 -193.8,-449.49 -432.7,-449.49 -239.1,0 -432.8,201.22 -432.8,449.49 0,248.21 193.7,449.43 432.8,449.43 238.9,0 432.7,-201.22 432.7,-449.43"></path>
      </g>
      <g transform="scale(1.58137)" id="g106">
        <path id="path108" style="fill:#ffffff;fill-opacity:1;fill-rule:nonzero;stroke:none" d="m 16300,7130.03 c 0,-30.67 -2.8,-60.39 -8.5,-89.23 -40,205.84 -214.9,360.7 -424.4,360.7 -209.6,0 -384.5,-154.86 -424.2,-360.7 -5.7,28.84 -8.5,58.56 -8.5,89.23 0,248.2 193.7,449.61 432.7,449.61 239,0 432.9,-201.41 432.9,-449.61"></path>
      </g>
      <g transform="scale(1.58053)" id="g110">
        <path id="path112" style="fill:#2976b4;fill-opacity:1;fill-rule:nonzero;stroke:none" d="m 15875.5,6684.32 c -209.6,0 -384.5,154.64 -424.5,360.26 8.3,42.77 22.4,83.33 41.4,120.79 72.7,-142.62 217.2,-239.86 383.1,-239.86 166,0 310.4,97.24 383.1,239.86 18.9,-37.33 33.1,-77.76 41.4,-120.41 -39.8,-205.81 -214.8,-360.64 -424.5,-360.64 m -432.2,423.47 c -0.5,8.67 -0.8,17.4 -0.8,26.19 0,41.63 5.6,82.32 15.8,120.41 v -0.07 c -10.3,-38.4 -15.7,-78.83 -15.7,-120.53 0,-8.73 0.2,-17.4 0.7,-26"></path>
      </g>
      <g transform="scale(1.58136)" id="g114">
        <path id="path116" style="fill:#b9afbe;fill-opacity:1;fill-rule:nonzero;stroke:none" d="m 15443,7040.92 c -4,20.55 -6.6,41.67 -7.8,63.17 -0.5,8.6 -0.7,17.27 -0.7,25.99 0,41.68 5.5,82.09 15.7,120.47 8.4,-31.11 19.9,-60.9 34.2,-88.91 -19,-37.44 -33.1,-77.97 -41.4,-120.72 m 848.5,0.38 c -8.3,42.62 -22.4,83.03 -41.4,120.34 14.3,28.08 25.8,57.86 34.2,88.97 10.1,-38.06 15.7,-78.73 15.7,-120.34 0,-30.48 -2.9,-60.2 -8.5,-88.97"></path>
      </g>
      <g transform="scale(1.59022)" id="g118">
        <path id="path120" style="fill:#371a45;fill-opacity:1;fill-rule:nonzero;stroke:none" d="m 15778.8,7446.57 c -187.3,0 -339.6,-159.78 -339.6,-356.11 0,-196.39 152.3,-356.11 339.6,-356.11 187.2,0 339.5,159.72 339.5,356.11 0,196.33 -152.3,356.11 -339.5,356.11 z m 0,-893.9 c -287.4,0 -521.2,241.23 -521.2,537.79 0,296.5 233.8,537.73 521.2,537.73 287.3,0 521.2,-241.23 521.2,-537.73 0,-296.56 -233.9,-537.79 -521.2,-537.79"></path>
      </g>
      <g transform="scale(1.4322)" id="g122">
        <path id="path124" style="fill:#371a45;fill-opacity:1;fill-rule:nonzero;stroke:none" d="m 16165.5,6309.58 c -74.2,0 -134.4,60.19 -134.4,134.41 v 873.41 c 0,174 -79.4,340.04 -212.5,444 l -76.8,60.12 c -197.8,154.59 -315.8,399.73 -315.8,655.84 v 824.12 c 0,74.29 60.1,134.48 134.4,134.48 74.3,0 134.4,-60.19 134.4,-134.48 v -824.12 c 0,-173.99 79.5,-339.96 212.6,-444 l 76.8,-60.05 c 197.7,-154.58 315.8,-399.8 315.8,-655.91 v -873.41 c 0,-74.22 -60.2,-134.41 -134.5,-134.41"></path>
      </g>
      <g transform="scale(1.76796)" id="g126">
        <path id="path128" style="fill:#cdc6d0;fill-opacity:1;fill-rule:nonzero;stroke:none" d="m 16263.7,10052.6 c -94.8,96.6 -193.6,194.3 -296.9,293.1 23.4,17.1 46.6,34.4 69.6,51.8 109.4,-82.4 199.8,-188.5 263.6,-310.8 -12,-11.4 -24.1,-22.8 -36.3,-34.1"></path>
      </g>
      <g transform="scale(1.77898)" id="g130">
        <path id="path132" style="fill:#371a45;fill-opacity:1;fill-rule:nonzero;stroke:none" d="m 16199,10024.2 c -63.4,121.5 -153.3,227 -262,308.9 38.2,29 76,58.7 113.4,88.9 102.4,-80.9 187.7,-182.5 249.6,-298.7 -33.2,-33.6 -66.8,-66.6 -101,-99.1"></path>
      </g>
      <g transform="scale(1.74629)" id="g134">
        <path id="path136" style="fill:#cdc6d0;fill-opacity:1;fill-rule:nonzero;stroke:none" d="m 15706.3,9611.15 c -82.1,125.12 -181.7,267.14 -296.4,413.65 197.2,93.2 387.7,200.5 570.2,320.8 111.6,-106.1 218.2,-210.9 319.9,-314.4 -185.9,-156.29 -384.5,-296.87 -593.7,-420.05"></path>
      </g>
      <g transform="scale(1.76402)" id="g138">
        <path id="path140" style="fill:#371a45;fill-opacity:1;fill-rule:nonzero;stroke:none" d="m 16136.2,9930.4 c -100.7,102.4 -206.2,206.2 -316.7,311.3 62.1,40.9 122.9,83.2 183,127.1 103.5,-99 202.5,-196.9 297.5,-293.7 -53.3,-49.6 -108,-97.94 -163.8,-144.7"></path>
      </g>
      <g transform="scale(1.68269)" id="g142">
        <path id="path144" style="fill:#cdc6d0;fill-opacity:1;fill-rule:nonzero;stroke:none" d="m 14076,9366.18 c -21.8,0 -43.7,0.11 -65.5,0.47 -221.8,3.27 -439.5,23.12 -652,58.42 v 581.33 c 222.5,-32.75 444,-48.73 663.5,-48.73 691.3,0 1361.4,158.23 1970.4,446.03 119,-152 222.3,-299.4 307.6,-429.28 -657.8,-387.41 -1417.3,-608.24 -2224,-608.24"></path>
      </g>
      <g transform="scale(2.02505)" id="g146">
        <path id="path148" style="fill:#ffffff;fill-opacity:1;fill-rule:nonzero;stroke:none" d="m 15249.5,10705 v 0 c -42.8,4.5 -73.3,44.1 -68.3,88.4 l 263,2311.7 c 5,44.3 43.8,76.6 86.5,72.1 v 0 c 448.5,-47.4 769.3,-462.7 716.4,-927.7 l -89.7,-788.3 c -52.9,-465 -459.4,-803.6 -907.9,-756.2"></path>
      </g>
      <g transform="scale(2.02391)" id="g150">
        <path id="path152" style="fill:#371a45;fill-opacity:1;fill-rule:nonzero;stroke:none" d="m 15531.5,13167.9 c -30.9,0 -57.9,-24.5 -61.6,-57.4 l -263.1,-2313 c -2,-17.4 2.8,-34.4 13.5,-47.7 9.9,-12.4 24,-20.2 39.6,-21.8 438.8,-46.2 837.9,286.3 889.6,741.6 l 89.8,788.7 c 25.7,226.4 -36.8,446.7 -176.2,620.3 -132,164.5 -318.6,267.2 -525.4,289 -2.1,0.2 -4.2,0.3 -6.2,0.3 m -190,-2478.4 c -28.2,0 -56.6,1.5 -85.2,4.5 -24.7,2.6 -47,14.8 -62.7,34.5 -16.4,20.4 -23.8,46.3 -20.8,72.9 l 263.1,2313 c 6.1,53.6 53.6,92.7 105.4,87.2 215.9,-22.8 410.7,-129.9 548.5,-301.6 145.1,-180.8 210.2,-410.1 183.4,-645.5 l -89.7,-788.8 c -50.5,-444.2 -419.2,-776.2 -842,-776.2"></path>
      </g>
      <g transform="scale(1.99806)" id="g154">
        <path id="path156" style="fill:#cdc6d0;fill-opacity:1;fill-rule:nonzero;stroke:none" d="m 15540.1,10941.5 c -5.2,0 -10.5,0 -15.8,0.2 73.3,178.6 135,364.2 184.2,556 232.7,13.7 445.2,128.2 591.5,305.4 l -20.1,-176.1 c -44.6,-392.2 -368.9,-685.5 -739.8,-685.5"></path>
      </g>
      <g transform="scale(2.03383)" id="g158">
        <path id="path160" style="fill:#371a45;fill-opacity:1;fill-rule:nonzero;stroke:none" d="m 15211.5,10751.2 c 386.9,-30.9 736.1,266.6 782,671.2 l 89.3,784.9 c 23.3,204.5 -33.1,403.4 -158.6,559.9 -114.8,143 -275.6,233.9 -454.2,257 l -258.5,-2273 m 55.1,-191.5 c -30.7,0 -61.7,1.5 -92.9,4.9 -45.4,4.7 -86.1,27.1 -114.9,62.9 -29.4,36.6 -42.6,82.8 -37.2,130 l 261.7,2301.7 c 11,95.5 96.1,165.2 190.3,155.2 235.6,-24.8 448.1,-141.6 598.3,-328.7 157.4,-196.2 228.1,-444.8 199.1,-699.8 l -89.3,-784.9 c -54.8,-481.5 -455.5,-841.3 -915.1,-841.3"></path>
      </g>
      <g transform="scale(1.73948)" id="g162">
        <path id="path164" style="fill:#ffffff;fill-opacity:1;fill-rule:nonzero;stroke:none" d="m 9511.76,16244.9 c 49.78,-5.3 85.37,-51.4 79.51,-102.9 l -306.13,-2691.3 c -5.86,-51.6 -50.99,-89.2 -100.72,-83.9 -522.23,55.1 -895.61,538.6 -834.04,1080 l 104.39,917.7 c 61.58,541.4 534.82,935.5 1056.99,880.4"></path>
      </g>
      <g transform="scale(1.7417)" id="g166">
        <path id="path168" style="fill:#371a45;fill-opacity:1;fill-rule:nonzero;stroke:none" d="m 9402.71,16209.4 c -471.38,0 -882.58,-370.7 -938.96,-866.7 l -104.27,-916.6 c -29.91,-263 42.77,-519 204.68,-720.7 153.36,-191.2 370.22,-310.5 610.56,-335.9 39.33,-4 74.18,25.7 78.83,66.3 l 305.73,2687.8 c 2.3,20.3 -3.21,40 -15.67,55.4 -11.6,14.5 -27.96,23.5 -46.05,25.4 -31.8,3.4 -63.5,5 -94.85,5 m -220.76,-2880 c -3.79,0 -7.52,0.2 -11.36,0.6 -250.97,26.5 -477.36,151 -637.43,350.5 -168.57,210.1 -244.24,476.5 -213.12,750.1 l 104.2,916.5 c 62.64,550.7 546.25,952.9 1077.46,896.8 28.76,-3 54.6,-17.2 72.92,-40 19.06,-23.8 27.67,-53.9 24.17,-84.8 l -305.74,-2687.8 c -6.66,-58.3 -55.29,-101.9 -111.1,-101.9"></path>
      </g>
      <g transform="scale(1.56139)" id="g170">
        <path id="path172" style="fill:#cdc6d0;fill-opacity:1;fill-rule:nonzero;stroke:none" d="m 10171.1,15025 c -211.49,40 -400.81,154.1 -539.02,326.4 -163.57,203.9 -236.97,462.8 -206.68,729.2 l 24.92,219.4 c 140.32,-242.3 371.14,-424.6 650.68,-493.4 4.2,-263.3 27.8,-524.5 70.1,-781.6"></path>
      </g>
      <g transform="scale(1.75193)" id="g174">
        <path id="path176" style="fill:#371a45;fill-opacity:1;fill-rule:nonzero;stroke:none" d="m 9347.82,16024.6 c -423.47,0 -793.01,-334.4 -843.93,-781.7 l -103.6,-911.2 c -26.99,-237.4 38.42,-468.2 184.2,-650 133.29,-166.1 319.94,-271.5 527.25,-298.3 l 300.13,2638.7 c -21.41,1.7 -42.87,2.5 -64.05,2.5 m -219.47,-2863.2 c -6.85,0 -13.81,0.4 -20.78,1.1 -273.58,28.9 -520.28,164.4 -694.55,381.7 -182.77,227.7 -264.85,516.3 -231.17,812.3 l 103.6,911.3 c 67.87,596.3 592.49,1032.2 1170.25,971 52.69,-5.6 100.01,-31.5 133.34,-73.1 34.14,-42.5 49.49,-96.1 43.27,-150.9 l -303.89,-2672.1 c -11.82,-103.8 -99.44,-181.3 -200.07,-181.3"></path>
      </g>
      <g transform="scale(2.06303)" id="g178">
        <path id="path180" style="fill:#ffffff;fill-opacity:1;fill-rule:nonzero;stroke:none" d="m 15184.2,11435.5 c -388.4,-2114.78 -2355,-3530.56 -4392.6,-3162.17 -2037.62,368.34 -3374.49,2381.37 -2986.08,4496.07 388.41,2114.8 2355.08,3530.6 4392.58,3162.2 2037.6,-368.3 3374.5,-2381.3 2986.1,-4496.1"></path>
      </g>
      <g transform="scale(2.06523)" id="g182">
        <path id="path184" style="fill:#371a45;fill-opacity:1;fill-rule:nonzero;stroke:none" d="m 11540.3,15955.8 c -1780.49,0 -3382,-1326.3 -3726.66,-3203 -191.84,-1044.6 28.47,-2091.3 620.51,-2947.18 560.86,-810.76 1395,-1352.2 2348.85,-1524.67 2023,-365.72 3982.7,1045.26 4368.5,3145.35 191.8,1044.6 -28.5,2091.3 -620.5,2947.1 -560.9,810.8 -1395,1352.3 -2348.9,1524.7 -215.2,38.9 -429.8,57.7 -641.8,57.7 m -115.6,-7766.07 c -214,0 -430.4,18.98 -647.7,58.24 -962.67,174.08 -1804.46,720.45 -2370.4,1538.62 -597.12,863.21 -819.42,1918.81 -625.93,2972.21 389.06,2118.2 2366.13,3541.2 4407.43,3172.3 962.7,-174.1 1804.5,-720.5 2370.4,-1538.6 597.2,-863.2 819.4,-1918.8 625.9,-2972.2 C 14836.8,9527.54 13221,8189.73 11424.7,8189.73"></path>
      </g>
      <g transform="scale(1.69571)" id="g186">
        <path id="path188" style="fill:#b9afbe;fill-opacity:1;fill-rule:nonzero;stroke:none" d="m 13914.4,10108.4 v 0 c -217.6,0 -437.7,16.7 -658.4,50.9 v 361.3 c 323.4,-49.9 633,-70.4 923.6,-70.4 661.8,0 1225,106.5 1627.4,215 171.3,46.3 337,99.4 493,157.5 -703.8,-455.8 -1527.4,-714.3 -2385.6,-714.3"></path>
      </g>
      <g transform="scale(2.07573)" id="g190">
        <path id="path192" style="fill:#371a45;fill-opacity:1;fill-rule:nonzero;stroke:none" d="m 11482,15799 c -1735.59,0 -3296.78,-1293.8 -3633,-3124.5 -187.21,-1019.3 27.71,-2040.4 605.09,-2875.15 C 9000.5,9009.46 9813.04,8481.94 10742.1,8314 c 209.4,-37.87 418.5,-56.22 624.8,-56.22 1735.7,-0.1 3296.9,1293.85 3633.1,3124.52 187.2,1019.3 -27.7,2040.4 -605.1,2875.2 -546.4,789.9 -1358.9,1317.4 -2287.9,1485.4 -209.5,37.8 -418.6,56.1 -625,56.1 m -115.1,-7726.8 c -217.3,0 -437.2,19.32 -657.9,59.21 -977.81,176.76 -1832.84,731.65 -2407.48,1562.39 -605.67,875.6 -831.18,1946.1 -635.01,3014.3 394.61,2148.6 2401.29,3591.9 4473.49,3217.3 977.9,-176.7 1832.9,-731.6 2407.5,-1562.3 605.7,-875.7 831.2,-1946.2 635,-3014.3 -352.6,-1919.82 -1992.3,-3276.6 -3815.6,-3276.6"></path>
      </g>
      <g transform="scale(1.96046)" id="g194">
        <path id="path196" style="fill:#371a45;fill-opacity:1;fill-rule:nonzero;stroke:none" d="M 15947.2,11932.6 C 15813.8,11142 15442.8,10448.9 14917.4,9911.25 14523.5,9508.23 13085.8,8926.12 11473.7,9176.06 9978.99,9407.84 8760.39,10457 8520.09,10964.5 c -320.53,676.8 -444.03,1451.4 -310.69,2241.9 352.83,2091.9 2231.2,2673.9 4368,2322.2 2136.8,-351.8 3722.6,-1504.2 3369.8,-3596"></path>
      </g>
      <g transform="scale(1.94366)" id="g198">
        <path id="path200" style="fill:#371a45;fill-opacity:1;fill-rule:nonzero;stroke:none" d="m 11565.7,15682.1 c -659.8,0 -1244.6,-112.9 -1724.74,-336.1 -821.34,-381.9 -1320.81,-1067.7 -1484.57,-2038.3 -127.49,-755.9 -21.3,-1522.1 307.05,-2215.4 233.27,-492.6 1442.16,-1531.28 2921.26,-1760.69 1638.8,-254.11 3048.8,353.3 3406.4,719.29 538.3,550.8 890.3,1241.6 1017.8,1997.6 131.8,781.7 -4.9,1463.2 -406.7,2025.5 -545.7,764 -1558.4,1287 -2928.7,1512.6 -387.4,63.8 -758.2,95.5 -1107.8,95.5 m 805,-6565.03 c -254.8,0 -526.2,18.11 -809.7,62.04 -861.3,133.57 -1560.6,514.24 -1995.61,810.13 -493.19,335.36 -901.95,742.36 -1041.43,1036.96 -341.93,722.1 -452.55,1519.9 -319.76,2307.2 172.67,1023.7 701.46,1747.9 1571.67,2152.5 762.83,354.7 1773.53,442.2 2922.73,253 1411.7,-232.4 2459.2,-777.1 3029.3,-1575.2 426.3,-596.9 572.1,-1317.2 433.2,-2140.9 -132.8,-787.2 -499.2,-1506.4 -1059.6,-2079.82 -232.9,-238.36 -735.3,-482.95 -1311,-638.33 -351.1,-94.72 -842.5,-187.58 -1419.8,-187.58"></path>
      </g>
      <g transform="scale(1.84027)" id="g202">
        <path id="path204" style="fill:#9b8da2;fill-opacity:1;fill-rule:nonzero;stroke:none" d="m 15575.8,12484.1 c -45.1,0 -89.7,7.5 -132.8,23.2 -279.9,101.9 -391.6,510.4 -249.5,912.4 120.2,340 383.5,566.5 631.2,566.5 45.1,0 89.7,-7.5 132.8,-23.2 226.2,-82.4 342.5,-365 303.8,-682.6 -62.6,-181.1 -134.9,-357.2 -216.3,-527.7 -132,-167.9 -304,-268.6 -469.2,-268.6"></path>
      </g>
      <g transform="scale(1.70955)" id="g206">
        <path id="path208" style="fill:#9b8da2;fill-opacity:1;fill-rule:nonzero;stroke:none" d="m 15879.1,12368.3 c -43.9,0 -87.2,10.1 -127.2,31.6 -153.8,82.6 -200.8,301.2 -104.9,488.4 70.9,138.4 200.2,220.8 325,220.8 43.9,0 87.2,-10.2 127.2,-31.7 153.8,-82.5 200.8,-301.2 104.9,-488.3 -70.9,-138.5 -200.3,-220.8 -325,-220.8"></path>
      </g>
      <g transform="scale(1.92393)" id="g210">
        <path id="path212" style="fill:#2a1a3b;fill-opacity:1;fill-rule:nonzero;stroke:none" d="m 12499.9,9366.37 c -256.7,0 -523.5,18.66 -796.4,60.97 -6.6,1.04 -13.3,2.07 -20,3.17 v 452.72 c 1327.9,133.07 2376.9,622.27 2740,993.97 374.7,383.3 688.7,827.9 923.9,1321 63,80.2 116.5,176.5 154.9,284.9 26,73.8 43.1,147.7 51.9,219.9 87.5,252.9 155.1,516.1 201,788.2 37.8,223.5 58.1,438.9 62.7,646 362.7,-552 482.1,-1212.6 355.2,-1965.1 -128.8,-763.8 -484.3,-1461.7 -1028.2,-2018.1 -301.7,-308.77 -1344.8,-787.68 -2645,-787.63"></path>
      </g>
      <g transform="scale(1.93506)" id="g214">
        <path id="path216" style="fill:#2a1a3b;fill-opacity:1;fill-rule:nonzero;stroke:none" d="m 12424.1,9235.4 c -259,0 -527,18.76 -799.9,61.03 -2.6,0.41 -5.3,0.83 -7.9,1.24 v 78.6 c 6.6,-1.08 13.3,-2.12 19.9,-3.15 271.4,-42.07 536.6,-60.62 791.8,-60.62 1292.7,-0.05 2329.8,476.11 2629.8,783.1 540.7,553.2 894.2,1247.1 1022.3,2006.5 126.2,748.2 7.4,1405 -353.2,1953.8 1.1,45.8 1.3,91 0.8,135.9 399.1,-553.3 572.3,-1251.2 428.8,-2102.5 -135.1,-801 -511.2,-1503.2 -1043.1,-2047.9 -332.5,-340.13 -1398.6,-806 -2689.3,-806"></path>
      </g>
      <g transform="scale(1.8359)" id="g218">
        <path id="path220" style="fill:#6b6577;fill-opacity:1;fill-rule:nonzero;stroke:none" d="m 16083.2,12783 c 81.6,171 154,347.5 216.8,529 -9.2,-75.6 -27.2,-153.1 -54.5,-230.4 -40.1,-113.5 -96.2,-214.5 -162.3,-298.6"></path>
      </g>
      <g transform="scale(1.96256)" id="g222">
        <path id="path224" style="fill:#371a45;fill-opacity:1;fill-rule:nonzero;stroke:none" d="m 15906.5,13709 c -28.3,0 -56.3,12.2 -75.6,35.8 -0.5,0.6 -1.4,1.7 -1.8,2.3 l -6.9,8.8 -4.8,10.2 c -494.6,1061.6 -1668.4,1817 -3220.3,2072.5 -1560.7,256.9 -2921.11,-99.7 -3732.19,-978.5 l -6.07,-6 c -39.79,-36.1 -101.5,-33.8 -138.18,5.6 -35.88,38.6 -34.96,98.3 1.88,135.5 856.79,926.8 2280.36,1304.8 3906.46,1037.1 1615.9,-266.1 2842.4,-1061.1 3365.4,-2181.4 20,-40.5 10.1,-91 -26.5,-120.3 -18.2,-14.5 -39.9,-21.6 -61.4,-21.6"></path>
      </g>
      <g transform="scale(1.81083)" id="g226">
        <path id="path228" style="fill:#9b8da2;fill-opacity:1;fill-rule:nonzero;stroke:none" d="m 9601.19,12795.5 c 0,0 -299.2,2345.5 1011.31,3044.8 671,357.9 1435.9,459.7 2014.8,459.7 552.1,0 935.1,-92.4 906.9,-143.6 0,0 -1926.5,-160 -2905.4,-1557.1 C 9873.99,13522 9601.19,12795.5 9601.19,12795.5"></path>
      </g>
      <g transform="scale(2.11394)" id="g230">
        <path id="path232" style="fill:#371a45;fill-opacity:1;fill-rule:nonzero;stroke:none" d="m 16300,3990.7 c 0,-682.04 -2768.1,-1438.36 -6723.56,-1438.36 -3955.42,0 -6723.81,756.32 -6723.81,1438.36 H 16300"></path>
      </g>
      <g transform="scale(2.1176)" id="g234">
        <path id="path236" style="fill:#371a45;fill-opacity:1;fill-rule:nonzero;stroke:none" d="m 2847.71,4015.74 c 279.67,49.3 559.34,62.38 839,67.62 279.68,6.84 559.35,3.21 839.02,-0.52 l 419.5,-3.02 419.49,-0.14 h 839.02 3356.07 3355.99 1678.1 l 419.5,0.09 c 139.8,-0.09 279.6,4.3 419.4,6.33 139.9,2.08 279.7,-1.14 419.6,-9.16 69.9,-4.58 139.8,-10.91 209.7,-20.97 69.9,-9.82 139.9,-21.44 209.8,-40.23 17.6,-4.73 28.1,-22.86 23.3,-40.52 -3.1,-11.76 -12.3,-20.4 -23.3,-23.38 -69.9,-18.74 -139.9,-30.36 -209.8,-40.19 -69.9,-10.05 -139.8,-16.38 -209.7,-20.96 -139.9,-8.03 -279.7,-11.24 -419.6,-9.16 -139.8,1.98 -279.6,6.42 -419.4,6.32 l -419.5,0.1 H 12915.8 9559.81 6203.74 5364.72 l -419.49,-0.19 -419.5,-2.98 c -279.67,-3.73 -559.34,-7.36 -839.02,-0.52 -279.66,5.25 -559.33,18.33 -839,67.58 -17.65,3.12 -29.43,19.93 -26.32,37.59 2.43,13.79 13.29,23.99 26.32,26.31"></path>
      </g>
      <g transform="scale(1.90087)" id="g238">
        <path id="path240" style="fill:#ffffff;fill-opacity:1;fill-rule:nonzero;stroke:none" d="m 15039.4,6228.99 c -790,98.21 -1336.3,-217.48 -1523.6,-519.24 -197.9,-318.91 -290.6,-512.61 -169.5,-746.18 65.3,-125.84 195.4,-208.64 384.5,-213.85 220.3,-6.05 444.6,202.01 444.6,202.01 0,0 669.5,-592.15 1685.2,-372.93 178.3,38.45 201.5,56.6 201.5,56.6 l 99.5,461.42 c 0,0 138.4,597.73 -340.6,883.44 -401.2,239.21 -781.6,248.73 -781.6,248.73"></path>
      </g>
      <g transform="scale(1.88645)" id="g242">
        <path id="path244" style="fill:#371a45;fill-opacity:1;fill-rule:nonzero;stroke:none" d="m 16122.3,4751.42 z m -0.1,-0.05 v 0 z m -0.2,-0.06 v -0.1 z m -596.8,-289.17 c -632.3,-0.05 -1076.5,276.08 -1240.4,396.62 -93.4,-69.97 -270,-180.87 -451.8,-174.77 -219.1,5.99 -387.9,102.1 -475.3,270.51 -150.1,289.48 -28.3,525.59 174.7,852.76 214.9,346 818,672.17 1634.6,570.65 55.9,-6.94 95.6,-57.94 88.7,-113.86 -7,-55.98 -57.7,-95.68 -114,-88.74 -727.5,90.43 -1254.2,-183.2 -1435.8,-475.71 -202.8,-326.91 -258.5,-474.44 -167,-651.06 52.5,-101.04 156.1,-156.54 299.6,-160.46 147.3,-4.14 321.2,126.05 376,176.46 l 67.8,62.45 69.1,-60.96 c 6.3,-5.46 651.3,-558.99 1608.9,-352.46 125.3,27.03 165.7,42.4 173.6,45.75 43.4,25.07 99.6,15 131.4,-25.61 34.7,-44.37 26.9,-108.56 -17.5,-143.28 -13.6,-10.6 -41.8,-32.71 -244.4,-76.44 -169,-36.47 -328.9,-51.85 -478.2,-51.85"></path>
      </g>
      <g transform="scale(1.89092)" id="g246">
        <path id="path248" style="fill:#371a45;fill-opacity:1;fill-rule:nonzero;stroke:none" d="m 15124,6363.46 c 17.7,-0.53 30.4,-0.95 44.9,-2.11 14.1,-1.01 28,-2.33 41.7,-3.92 27.6,-3.12 54.5,-7.29 81.5,-12 53.7,-9.89 106.8,-22.11 158.8,-37.18 52.2,-14.86 103.5,-32.26 153.8,-51.82 25.1,-10.16 50.3,-19.73 75.1,-30.41 l 73.3,-34.11 c 96.7,-47.39 190.6,-100.06 278.1,-161.99 44.6,-29.3 86.2,-63.14 127.9,-96.25 41.3,-33.74 80.2,-70.17 119.1,-106.14 20.6,-19.14 21.8,-51.45 2.7,-72.08 -16.3,-17.55 -42,-21.05 -62,-10.05 l -3.7,2.07 c -44.8,24.69 -86.7,52.83 -131.2,76.57 -44.8,23.43 -87.9,48.92 -133.5,70.02 -88.9,45.8 -181.4,83.4 -273.8,118.89 -92.8,34.85 -187.6,62.82 -282.4,87.89 -47.4,12.9 -95.2,23.32 -142.8,33.79 -23.8,4.39 -47.6,10.16 -71.2,13.86 -11.8,2.27 -23.6,4.49 -35.1,6.24 l -32.2,5.34 -8.7,1.43 c -55.3,9.25 -92.8,61.61 -83.6,117.03 8.5,50.77 53.2,86.47 103.3,84.93"></path>
      </g>
      <g transform="scale(1.68982)" id="g250">
        <path id="path252" style="fill:#371a45;fill-opacity:1;fill-rule:nonzero;stroke:none" d="m 15831.8,5629.88 c 3.7,46.1 9.2,84.15 16.2,125.22 6.7,40.3 14.9,80.13 24.3,119.72 18.8,79.06 42.9,156.94 72.5,232.87 30.8,75.68 68.1,149 112.6,218.01 46.3,68.35 101.6,130.72 164.8,183.62 19.1,15.92 47.4,13.38 63.4,-5.68 14.4,-17.28 13.7,-42.13 -0.8,-58.52 l -1.7,-1.96 c -47.4,-54.03 -86.5,-114.21 -117.5,-178.95 -29.5,-65.75 -52.4,-134.39 -69.4,-204.87 -16,-70.9 -26.9,-143.09 -33,-215.65 -3.1,-36.27 -5,-72.73 -5.5,-108.89 -0.8,-35.38 -0.3,-74.15 2.1,-104.92 4.9,-62.9 -42.2,-117.88 -105.1,-122.79 -63,-4.91 -117.9,42.13 -122.9,105.1 -0.4,5.74 -0.3,12.13 0,17.69"></path>
      </g>
      <g transform="scale(1.90085)" id="g254">
        <path id="path256" style="fill:#371a45;fill-opacity:1;fill-rule:nonzero;stroke:none" d="m 15961.4,4644.88 c 11.3,57.87 24.3,111.11 39,165.92 14.6,54.35 31,108.38 50,161.88 19.1,53.5 40.7,106.69 68.4,158.51 14,25.88 29.7,51.45 49,75.86 19.5,24.15 42.6,48.34 75.2,64.81 18,9.16 40.1,1.9 49.2,-16.1 7.8,-15.52 3.6,-33.93 -9.2,-44.61 l -3.3,-2.73 c -28.7,-23.99 -49.4,-71.55 -63.8,-118.69 -14.4,-48.13 -24.2,-99.16 -31.7,-150.72 -7.4,-51.66 -12.5,-104.06 -15.9,-156.61 -3.4,-52.09 -5.4,-106.38 -5.1,-156.36 0.3,-56.23 -44.9,-102.16 -101.1,-102.53 -56.3,-0.42 -102.2,44.88 -102.6,101.11 0,6.69 0.7,13.89 1.9,20.26"></path>
      </g>
      <g transform="scale(1.8834)" id="g258">
        <path id="path260" style="fill:#d8d8d8;fill-opacity:1;fill-rule:nonzero;stroke:none" d="m 16300,4479.18 h -4794.6 v 422.79 H 16300 v -422.79"></path>
      </g>
      <g transform="scale(1.89522)" id="g262">
        <path id="path264" style="fill:#371a45;fill-opacity:1;fill-rule:nonzero;stroke:none" d="m 11535.3,4552.87 h 4561.4 v 216.97 h -4561.4 z m 4663.1,-203.25 h -4764.7 c -56.1,0 -101.6,45.54 -101.6,101.63 v 420.16 c 0,56.14 45.5,101.62 101.6,101.62 h 4764.7 c 56.1,0 101.6,-45.48 101.6,-101.62 v -420.16 c 0,-56.09 -45.5,-101.63 -101.6,-101.63"></path>
      </g>
      <g transform="scale(1.36721)" id="g266">
        <path id="path268" style="fill:#d8d8d8;fill-opacity:1;fill-rule:nonzero;stroke:none" d="M 15623.7,8285.53 H 5997.08 c -373.51,0 -676.28,302.73 -676.28,676.27 v 6227.4 c 0,373.5 302.77,676.3 676.28,676.3 h 9626.62 c 373.6,0 676.3,-302.8 676.3,-676.3 V 8961.8 c 0,-373.54 -302.7,-676.27 -676.3,-676.27"></path>
      </g>
      <g transform="scale(1.3554)" id="g270">
        <path id="path272" style="fill:#f3f3f3;fill-opacity:1;fill-rule:nonzero;stroke:none" d="m 15759.9,8499.75 h -3809.4 l -12.1,186.36 h 3872.8 c 166.5,0 302.2,135.68 302.2,302.5 v 6384.19 0 c 0,166.9 -135.7,302.2 -302.2,302.2 H 5997.88 c -166.55,0 -302.21,-135.3 -302.21,-302.2 V 8988.61 c 0,-166.82 135.66,-302.5 302.21,-302.5 v 0 0 h 3872.97 l -12.1,-186.36 h -3809.4 c -297.82,0 -540.12,242.29 -540.12,540.13 v 6281.62 c 0,297.8 242.3,540.1 540.12,540.1 h 9710.55 c 297.7,0 540.1,-242.3 540.1,-540.1 V 9039.88 c 0,-297.84 -242.4,-540.13 -540.1,-540.13"></path>
      </g>
      <g transform="scale(1.33989)" id="g274">
        <path id="path276" style="fill:#d8d8d8;fill-opacity:1;fill-rule:nonzero;stroke:none" d="M 16300,15550.8 V 9092.69 c 0,-168.74 -137.2,-305.99 -305.7,-305.99 H 6067.33 c -168.47,0 -305.7,137.25 -305.7,305.99 v 6458.11 c 0,168.9 137.23,305.7 305.7,305.7 h 9926.97 c 168.5,0 305.7,-136.8 305.7,-305.7"></path>
      </g>
      <g transform="scale(1.33989)" id="g278">
        <path id="path280" style="fill:#b0a8b3;fill-opacity:1;fill-rule:nonzero;stroke:none" d="m 15994.3,8786.7 h -3917.6 l -131.8,2025.3 c 1680,1011.2 3331.6,2514.3 4355.1,4738.8 V 9092.69 c 0,-168.74 -137.2,-305.99 -305.7,-305.99 m -6009.15,0 H 6067.33 c 0,0 1814.66,171.8 3987.67,1074.93 L 9985.15,8786.7"></path>
      </g>
      <g transform="scale(1.37903)" id="g282">
        <path id="path284" style="fill:#371a45;fill-opacity:1;fill-rule:nonzero;stroke:none" d="m 5945.71,15589.9 c -292.72,0 -530.86,-238.2 -530.86,-530.8 V 8885.01 c 0,-292.74 238.14,-530.88 530.86,-530.88 h 9544.19 c 292.6,0 530.8,238.14 530.8,530.88 v 6174.09 c 0,292.6 -238.2,530.8 -530.8,530.8 H 5945.71 M 15489.9,8074.87 H 5945.71 c -446.73,0 -810.16,363.45 -810.16,810.14 v 6174.09 c 0,446.6 363.43,810.1 810.16,810.1 h 9544.19 c 446.7,0 810.1,-363.5 810.1,-810.1 V 8885.01 c 0,-446.69 -363.4,-810.14 -810.1,-810.14"></path>
      </g>
      <g transform="scale(1.0485)" id="g286">
        <path id="path288" style="fill:#d8d8d8;fill-opacity:1;fill-rule:nonzero;stroke:none" d="m 16191.7,8045.85 h -4190.6 c -59.7,0 -108.2,48.45 -108.2,108.25 0,263.81 213.9,477.64 477.6,477.64 h 3451.9 c 263.7,0 477.6,-213.83 477.6,-477.64 0,-59.8 -48.5,-108.25 -108.3,-108.25"></path>
      </g>
      <g transform="scale(1.0485)" id="g290">
        <path id="path292" style="fill:#b0a8b3;fill-opacity:1;fill-rule:nonzero;stroke:none" d="m 16191.7,8045.85 h -4190.6 c -59.7,0 -108.2,48.45 -108.2,108.25 0,263.81 213.9,477.64 477.6,477.64 h 3451.9 c 263.7,0 477.6,-213.83 477.6,-477.64 0,-59.8 -48.5,-108.25 -108.3,-108.25"></path>
      </g>
      <g transform="scale(1.00358)" id="g294">
        <path id="path296" style="fill:#d8d8d8;fill-opacity:1;fill-rule:nonzero;stroke:none" d="m 14727.3,13075 c -362,0 -655.7,293.6 -655.7,655.7 0,362 293.7,655.7 655.7,655.7 362.4,0 655.7,-293.7 655.7,-655.7 0,-362.1 -293.3,-655.7 -655.7,-655.7 m 1194.8,1755.1 c -16,248.8 -222.7,442.3 -472.1,442.3 h -1445.4 c -249.3,0 -456,-193.5 -472.1,-442.3 L 13155,9018.29 h 3145 l -377.9,5811.81"></path>
      </g>
      <g transform="scale(1.00358)" id="g298">
        <path id="path300" style="fill:#d8d8d8;fill-opacity:1;fill-rule:nonzero;stroke:none" d="m 16300,9018.29 h -3145 l 377.5,5811.81 c 16.1,248.8 222.8,442.3 472.1,442.3 H 15450 c 249.4,0 456.1,-193.5 472.1,-442.3 L 16300,9018.29"></path>
      </g>
      <g transform="scale(1.00358)" id="g302">
        <path id="path304" style="fill:#f3f3f3;fill-opacity:1;fill-rule:nonzero;stroke:none" d="m 16300,9018.29 h -322.6 -385.7 -2436.7 l 377.5,5811.81 c 16.1,248.8 222.8,442.3 472.1,442.3 H 15450 c 249.4,0 456.1,-193.5 472.1,-442.3 L 16300,9018.29 m -331.4,310.49 v 0 L 15757,12582.9 15612,14810 c -5.4,85.2 -76.4,151.8 -162,151.8 h -1445.4 c -85.6,0 -156.6,-66.6 -161.9,-151.8 l -342.1,-5262.01 -14.2,-219.21 h 2482.2"></path>
      </g>
      <path id="path306" style="fill:#d8d8d8;fill-opacity:1;fill-rule:nonzero;stroke:none" d="m 16025.8,9362.2 h -2491.1 l 14.3,220 343.3,5280.9 c 5.3,85.5 76.6,152.3 162.5,152.3 h 1450.6 c 85.9,0 157.1,-66.8 162.5,-152.3 l 145.6,-2235.1 212.3,-3265.8"></path>
      <path id="path308" style="fill:#371a45;fill-opacity:1;fill-rule:nonzero;stroke:none" d="m 14780.1,14178.2 c -219.7,0 -398.4,-178.7 -398.4,-398.3 0,-219.7 178.7,-398.4 398.4,-398.4 219.7,0 398.4,178.7 398.4,398.4 0,219.6 -178.7,398.3 -398.4,398.3 z m 0,-1126.3 c -401.4,0 -728,326.6 -728,728 0,401.4 326.6,727.9 728,727.9 401.4,0 728,-326.5 728,-727.9 0,-401.4 -326.6,-728 -728,-728"></path>
      <path id="path310" style="fill:#b0a8b3;fill-opacity:1;fill-rule:nonzero;stroke:none" d="m 16025.8,9362.2 h -2491.1 l 14.3,220 c 628.7,376.2 1777.4,1278.2 2264.5,3045.8 l 212.3,-3265.8"></path>
      <g transform="scale(1.01559)" id="g312">
        <path id="path314" style="fill:#371a45;fill-opacity:1;fill-rule:nonzero;stroke:none" d="M 13201.9,9101.22 H 15905 l -360.4,5541.18 v 0.1 c -9.4,145.7 -131.1,259.7 -277.2,259.7 h -1428.3 c -146.2,0 -268,-114 -277.3,-259.7 z m 2905.4,-379.19 h -3107.8 c -52.4,0 -102.6,21.66 -138.4,59.97 -35.8,38.2 -54.2,89.6 -50.8,141.99 l 373.1,5743.01 c 22,344.5 310.1,614.4 655.7,614.4 h 1428.3 c 345.5,0 633.4,-269.8 655.7,-614.3 l 373.5,-5743.11 c 3.4,-52.39 -15,-103.79 -50.9,-141.99 -35.9,-38.31 -85.9,-59.97 -138.4,-59.97"></path>
      </g>
      <path id="path316" style="fill:#e5e9ec;fill-opacity:1;fill-rule:nonzero;stroke:none" d="m 8998.51,7788.1 c 33.74,6.6 67.87,11.7 101.14,20.1 45.2,11.5 55,24.3 60.19,70.9 3.47,31.1 6.35,62.2 9.95,93.3 0.29,2.4 4.19,4.4 9.45,9.7 6.45,-31.4 11.68,-60.8 18.65,-89.7 12.84,-53.4 27.94,-66 84.4,-69.4 31.08,-1.9 62.29,-1.5 95.13,-10.4 -32.11,-9.1 -64.29,-18 -96.31,-27.4 -56.46,-16.5 -63.73,-25.7 -66.8,-85.1 -0.81,-15.6 0.13,-31.3 -0.35,-47 -0.36,-11.7 -1.7,-23.4 -11.37,-37.1 -10.12,35.3 -20.7,70.6 -30.2,106.1 -7.34,27.5 -24.08,43.2 -52.5,45.6 -40.21,3.5 -80.45,6.7 -120.67,10 -0.24,3.5 -0.48,6.9 -0.71,10.4"></path>
      <g transform="scale(1.04834)" id="g318">
        <path id="path320" style="fill:#e5e9ec;fill-opacity:1;fill-rule:nonzero;stroke:none" d="m 15943.3,7472.74 c 32.8,-1.62 65.6,-4.58 98.3,-4.39 44.5,0.39 56.5,10.11 71.9,52.09 10.2,27.95 20,56.18 30.3,84.13 0.9,2.19 5,3.15 11,6.86 -1.1,-30.52 -2.9,-58.94 -3,-87.37 -0.3,-52.37 10.8,-67.44 62.4,-83.46 28.4,-8.78 57.4,-15.55 85.8,-31.2 -31.9,-1.14 -63.6,-2 -95.5,-3.43 -56.1,-2.58 -64.8,-9.44 -81.2,-63.72 -4.3,-14.31 -7,-29.09 -11,-43.5 -3,-10.78 -6.9,-21.27 -19,-31.85 -1.3,35.1 -3.1,70.2 -3.8,105.21 -0.6,27.18 -12.5,45.5 -38.3,54.18 -36.5,12.4 -73,24.51 -109.6,36.72 0.6,3.24 1.2,6.49 1.7,9.73"></path>
      </g>
      <g transform="scale(1.30933)" id="g322">
        <path id="path324" style="fill:#e5e9ec;fill-opacity:1;fill-rule:nonzero;stroke:none" d="m 16033.6,5195.81 c 25.2,-7.26 50.3,-15.58 75.8,-21.31 34.7,-7.87 45.9,-2.52 65.6,27.34 13,20.01 25.8,40.17 39,60.11 1.1,1.52 4.4,1.52 9.8,3.28 -6.4,-23.6 -13.1,-45.37 -18.3,-67.51 -9.8,-40.79 -3.9,-54.54 33.3,-76.46 20.6,-12.06 42,-22.6 61.2,-40.02 -25,4.97 -49.9,10.09 -75,14.74 -44.2,8.25 -52.3,4.51 -75,-34.82 -6,-10.31 -10.8,-21.39 -16.5,-31.85 -4.3,-7.87 -9.2,-15.35 -20.6,-21.39 5.3,27.65 10.4,55.3 16.2,82.79 4.6,21.24 -1.4,37.66 -20,49.19 -26.1,16.27 -52.4,32.38 -78.6,48.58 1,2.44 2,4.88 3.1,7.33"></path>
      </g>
      <g transform="scale(1.69912)" id="g326">
        <path id="path328" style="fill:#e5e9ec;fill-opacity:1;fill-rule:nonzero;stroke:none" d="m 16027.6,4696.38 c 24.4,3.59 49,6.12 73.2,11.07 32.8,6.71 40.2,15.59 45.5,48.79 3.5,22.13 6.6,44.37 10.2,66.56 0.3,1.71 3.2,3 7.1,6.59 3.6,-22.72 6.4,-43.9 10.4,-64.91 7.4,-38.67 17.8,-48.21 58.1,-52.56 22.3,-2.41 44.7,-3.18 67.9,-10.59 -23.3,-5.48 -46.7,-10.77 -70,-16.43 -41,-10 -46.5,-16.36 -50.7,-58.79 -1.1,-11.18 -1,-22.48 -1.8,-33.66 -0.7,-8.36 -2,-16.72 -9.4,-26.25 -6.1,25.71 -12.5,51.32 -18.1,77.09 -4.3,19.96 -15.8,31.73 -36.1,34.49 -28.7,3.83 -57.4,7.48 -86.2,11.19 0,2.47 -0.1,4.94 -0.1,7.41"></path>
      </g>
      <g transform="scale(1.8834)" id="g330">
        <path id="path332" style="fill:#e5e9ec;fill-opacity:1;fill-rule:nonzero;stroke:none" d="m 16100.2,4089.46 c 17.6,4.72 35.5,8.7 52.8,14.38 23.6,7.76 28.3,14.92 29.3,39.77 0.7,16.62 1.1,33.19 1.8,49.81 0.1,1.27 2.1,2.49 4.7,5.47 4.6,-16.36 8.4,-31.75 13.2,-46.84 8.7,-27.76 17.2,-33.87 47.2,-33.61 16.6,0.11 33.1,1.49 50.8,-2.01 -16.7,-6 -33.3,-11.9 -50,-18.06 -29.3,-10.83 -32.8,-15.98 -32.2,-47.52 0.1,-8.33 1.2,-16.61 1.5,-24.9 0.3,-6.26 0,-12.47 -4.6,-20.12 -6.7,18.37 -13.6,36.64 -19.9,55.11 -4.9,14.29 -14.4,21.99 -29.6,22.25 -21.4,0.32 -42.8,0.53 -64.2,0.85 -0.3,1.81 -0.5,3.61 -0.8,5.42"></path>
      </g>
      <g transform="scale(1.50903)" id="g334">
        <path id="path336" style="fill:#e5e9ec;fill-opacity:1;fill-rule:nonzero;stroke:none" d="m 16048.4,4456.3 c 22.6,3.32 45.3,5.7 67.6,10.21 30.3,6.23 37.2,14.45 42.1,45.06 3.2,20.48 6.1,41.02 9.4,61.5 0.3,1.59 2.9,2.78 6.6,6.1 3.3,-20.95 5.8,-40.56 9.5,-59.98 6.9,-35.72 16.5,-44.53 53.8,-48.51 20.5,-2.25 41.1,-2.91 62.6,-9.8 -21.5,-5.04 -43.1,-9.94 -64.6,-15.18 -37.8,-9.21 -42.9,-15.04 -46.9,-54.27 -1,-10.34 -0.8,-20.74 -1.6,-31.08 -0.6,-7.75 -1.9,-15.44 -8.7,-24.25 -5.6,23.72 -11.5,47.38 -16.7,71.23 -4,18.36 -14.6,29.29 -33.3,31.81 -26.5,3.51 -53.1,6.89 -79.6,10.34 -0.1,2.25 -0.2,4.57 -0.2,6.82"></path>
      </g>
      <g transform="scale(1.24679)" id="g338">
        <path id="path340" style="fill:#e5e9ec;fill-opacity:1;fill-rule:nonzero;stroke:none" d="m 15980.9,6332.04 c 27,16.53 54.8,31.84 80.8,49.81 35.4,24.38 39.7,38.58 29.2,80.45 -7,27.99 -14.4,55.74 -21.3,83.73 -0.5,2.17 2.2,5.22 5,11.4 15.7,-25.03 29.6,-48.69 44.9,-71.39 28.2,-42.03 45.3,-48.04 95.1,-32.88 27.4,8.34 54.3,18.68 85.4,21.57 -24.8,-18.13 -49.6,-36.09 -74.3,-54.54 -43.4,-32.4 -46.7,-42.67 -30.4,-94.88 4.4,-13.72 10.2,-27.03 14.8,-40.67 3.4,-10.18 6,-20.77 2.1,-35.69 -20.1,27.27 -40.5,54.3 -60.1,81.97 -15.2,21.34 -34.7,29.52 -59.9,22.46 -35.9,-9.87 -71.6,-19.97 -107.4,-30.08 -1.3,2.97 -2.7,5.86 -3.9,8.74"></path>
      </g>
      <path id="path342" style="fill:#e5e9ec;fill-opacity:1;fill-rule:nonzero;stroke:none" d="m 14372.2,7028.7 c 34,5 68.3,8.5 102,15.4 45.7,9.3 56.1,21.7 63.4,68 4.9,30.9 9.3,61.9 14.3,92.7 0.4,2.4 4.4,4.3 9.9,9.2 5,-31.6 8.8,-61.2 14.5,-90.4 10.3,-53.9 24.8,-67.2 81,-73.3 31,-3.3 62.2,-4.4 94.6,-14.8 -32.5,-7.6 -65.1,-14.9 -97.5,-22.8 -57.2,-13.9 -64.9,-22.8 -70.7,-81.9 -1.6,-15.6 -1.4,-31.3 -2.6,-47 -0.9,-11.6 -2.8,-23.3 -13.1,-36.6 -8.4,35.9 -17.3,71.6 -25.2,107.5 -6,27.8 -22,44.2 -50.3,48 -40,5.4 -80,10.5 -120.1,15.7 0,3.4 -0.1,6.8 -0.2,10.3"></path>
      <path id="path344" style="fill:#e5e9ec;fill-opacity:1;fill-rule:nonzero;stroke:none" d="m 12391.7,7918.6 c 62.5,-0.3 125.1,-3.3 187.4,0 84.6,4.4 106.7,23.8 132.4,104.9 17.3,54.2 33.5,108.7 50.9,162.8 1.4,4.2 9,6.4 20.3,13.9 0.3,-58.2 -0.8,-112.4 1.4,-166.5 3.9,-99.7 26.3,-127.5 125.7,-153.6 54.8,-14.4 110.5,-24.8 165.9,-52.2 -60.5,-4.9 -121,-9.3 -181.4,-14.7 -106.5,-9.4 -122.7,-23.3 -149.2,-128 -7,-27.5 -10.9,-55.9 -17.3,-83.6 -4.8,-20.7 -11.4,-41.1 -33.5,-62.2 -5.5,66.7 -11.8,133.3 -16.1,200 -3.3,51.5 -27.6,85.4 -77.4,99.9 -70.4,20.4 -141,40.4 -211.5,60.6 0.8,6.2 1.6,12.5 2.4,18.7"></path>
      <g transform="scale(1.13065)" id="g346">
        <path id="path348" style="fill:#e5e9ec;fill-opacity:1;fill-rule:nonzero;stroke:none" d="m 15726.8,6042.89 c 53.6,-9.73 106.9,-21.84 160.9,-28.56 73.3,-9.2 95.1,4.15 129.6,69.78 23,43.87 45.3,88.18 68.5,131.96 1.8,3.45 8.7,4.15 19.5,8.84 -8.5,-49.97 -17.7,-96.31 -24.2,-143.1 -11.8,-86.15 3.2,-113.39 84.6,-151.06 44.7,-20.7 91,-38.12 134.3,-70.14 -52.6,5.13 -105.2,10.52 -157.9,15.13 -92.8,8.13 -108.9,-1.25 -147.6,-87.04 -10.2,-22.64 -17.9,-46.34 -27.7,-69.16 -7.2,-17.07 -16,-33.52 -38.2,-48.29 5.5,58.11 10.3,116.22 16.7,174.14 5.1,44.76 -10.6,77.48 -51.2,97.56 -57.3,28.3 -114.8,56.25 -172.2,84.29 1.6,5.22 3.3,10.44 4.9,15.65"></path>
      </g>
      <g transform="scale(1.44518)" id="g350">
        <path id="path352" style="fill:#e5e9ec;fill-opacity:1;fill-rule:nonzero;stroke:none" d="m 15935.6,5529.08 c 32.8,3.39 65.9,5.4 98.4,10.66 44.2,7.12 54.7,18.61 63.6,62.68 6,29.48 11.4,59.03 17.4,88.44 0.5,2.28 4.4,3.87 9.9,8.44 3.5,-30.51 6,-59.09 10.2,-87.33 7.8,-52.17 21.1,-65.45 74.8,-73.55 29.6,-4.43 59.4,-6.71 90.1,-17.92 -31.4,-6.02 -63,-11.76 -94.4,-18.06 -55.4,-11.07 -63.1,-19.24 -71,-75.77 -2.2,-14.88 -2.6,-29.96 -4.4,-44.91 -1.3,-11.14 -3.6,-22.21 -14,-34.53 -6.7,34.67 -13.8,69.27 -19.9,104.07 -4.7,26.92 -19.4,43.32 -46.4,48.02 -38.1,6.79 -76.3,13.22 -114.5,19.79 0.1,3.33 0.1,6.65 0.2,9.97"></path>
      </g>
      <g transform="scale(1.66433)" id="g354">
        <path id="path356" style="fill:#e5e9ec;fill-opacity:1;fill-rule:nonzero;stroke:none" d="m 15882.3,4182.16 c 38.1,-0.3 76.4,-2.28 114.5,-0.48 51.7,2.52 65.2,14.3 81.2,63.81 10.6,33.05 20.7,66.33 31.5,99.32 0.8,2.58 5.5,3.9 12.3,8.47 0.2,-35.57 -0.7,-68.68 0.5,-101.72 2.2,-60.93 15.8,-77.93 76.5,-94.22 33.4,-8.89 67.4,-15.38 101.2,-32.26 -37,-2.82 -73.9,-5.35 -110.9,-8.53 -65,-5.53 -75,-13.94 -91.5,-77.81 -4.3,-16.83 -6.8,-34.13 -10.7,-51.07 -3,-12.68 -7.1,-25.06 -20.6,-37.91 -3.2,40.73 -6.9,81.41 -9.4,122.21 -1.9,31.54 -16.6,52.27 -47,61.22 -43,12.68 -86.1,25.06 -129.1,37.55 0.5,3.85 1,7.63 1.5,11.42"></path>
      </g>
      <g transform="scale(1.06031)" id="g358">
        <path id="path360" style="fill:#371a45;fill-opacity:1;fill-rule:nonzero;stroke:none" d="M 11951.8,8137.88 H 15927 c -33,124.3 -146.4,216.07 -281,216.07 h -3413.2 c -134.6,0 -248,-91.77 -281,-216.07 z m 4059.6,-363.29 h -4143.9 c -159.2,0 -288.7,129.49 -288.7,288.69 0,360.55 293.4,653.96 654,653.96 H 15646 c 360.7,0 654,-293.41 654,-653.96 0,-159.2 -129.5,-288.69 -288.6,-288.69"></path>
      </g>
      <g transform="scale(1.96911)" id="g362">
        <path id="path364" style="fill:#371a45;fill-opacity:1;fill-rule:nonzero;stroke:none" d="m 16188.2,6513.35 c -15.5,0 -31.2,3.7 -45.8,11.53 -714.7,380.22 -1665,44.33 -1674.5,40.83 -50.7,-18.29 -106.8,7.87 -125.2,58.7 -18.4,50.74 7.8,106.8 58.5,125.24 42.2,15.23 1040.7,369.5 1833,-52.11 47.7,-25.39 65.8,-84.6 40.5,-132.29 -17.6,-33.06 -51.5,-51.85 -86.5,-51.9"></path>
      </g>
      <g transform="scale(1.2279)" id="g366">
        <path id="path368" style="fill:#ffffff;fill-opacity:1;fill-rule:nonzero;stroke:none" d="m 13235.4,15781.2 c 3.9,29.2 6.9,58 9,86.6 l -82.8,10 z m -2095.9,-713 c 85.9,116.6 170.7,232.2 255.4,347.4 -28.3,-2.4 -56.1,-7.3 -82,-14.5 -165.3,-45.4 -299.5,-142.3 -417.6,-253.3 z m 910.2,83.7 c 45.1,0 88,-15.4 123.9,-44.8 48.3,-39.4 75.7,-96.8 74.6,-157.4 -1.1,-62.3 -31.8,-120.8 -84.3,-160.7 -111,-85.3 -222.8,-170.9 -334.6,-256.4 -70,-53.6 -140,-107.1 -209.9,-160.7 388.9,119.3 680.8,239 940.1,385.4 128.1,72.4 226.2,142.3 308.5,220 99.7,95 181.4,214.5 248.8,364.8 -17.2,21.7 -34.2,44.1 -51.2,66.5 l -32.5,42.3 c -109.8,143.9 -219.1,287.1 -329.5,430 -91.8,-13.1 -182,-37.2 -271.3,-72 -133.4,-51.6 -257.6,-137.3 -402.9,-277.6 -134.3,-128.8 -254.9,-268.4 -358.8,-415.1 -92.7,-130.8 -183.6,-266.7 -271.5,-398.2 l -15.1,-22.4 177.7,136 c 119.7,92 239.5,183.7 359.7,275.3 39.2,29.6 83.4,45 128.3,45 z m -102.1,-1378 c 89.3,55.1 160.2,109.4 221.2,169 88.9,87.5 144.5,171.7 174.1,264.2 l -409.3,-159.1 c 4.7,-90.3 9.4,-181.7 14,-274.1 z m -188.8,-521.4 c -107.5,0 -190,84.3 -196.1,200.4 -7.4,133 -13.8,266.8 -20.3,400.5 l -4.2,87 c -1.8,0 -3.6,0 -5.4,0 -86.4,0 -138.2,52.4 -173.6,98.1 -21.5,27.8 -42.9,55.7 -64.6,84.1 -18.8,-14.4 -37.7,-28.5 -56.8,-42.2 -34.6,-24.9 -74.5,-38.2 -115.1,-38.2 -36.3,0 -71.8,10.2 -105.3,30.5 -76.4,45 -112.8,133.9 -87.9,215.7 11.3,39.9 37.4,81.1 70.9,111.5 16.3,15 33.1,28.7 50.1,41.7 -10.6,13.7 -20.9,27.3 -31.2,40.9 l -5.7,7.8 c -1.8,2.5 -3.5,5.1 -5.5,7.4 -63.3,67 -87.6,142.2 -72.1,216 l -448.8,145.2 c -73.6,24.9 -125.7,75.9 -143.9,140.5 -18,64 -0.5,134.1 48.1,192.2 117,140.3 277.9,318.5 485,448.9 189,118.7 372.5,176.3 561.3,176.3 13.8,0 27.7,-0.2 41.6,-0.9 84.5,-4.2 158.4,-19.3 225.5,-45.7 l 30.5,28.9 c 61.6,58.6 125.4,119.3 194.4,174.7 231.1,186.1 504.5,290.5 835.5,319 54.8,4.8 110.6,7.2 165.8,7.2 170.9,0 346.7,-23 522.2,-68.3 26,-6.6 49.6,-16.1 70.5,-24.5 8.8,-3.5 17.7,-7.1 26.6,-10.3 17.5,-6.2 32.7,-17.2 44.3,-31.7 4.9,-6.3 21.9,-29 25.9,-33.9 9.8,-12.4 16.6,-27.2 19.6,-42.8 21.7,-112.9 9.6,-219.2 -2.2,-321.9 l -1.8,-15.2 c -32.8,-290 -121.2,-552.5 -262.6,-779.9 -113.1,-182.3 -258,-331.7 -430.6,-444.1 -38.3,-24.9 -77,-48.7 -115.6,-72.5 -23.2,-14.3 -46.4,-28.8 -69.5,-43.3 24.5,-232 -47.4,-447.3 -219,-657.8 -116.2,-141.6 -266.5,-261.4 -459.9,-366.7 -68.8,-37.2 -140.8,-73.5 -220.4,-111.1 -32.7,-15.5 -66.4,-23.5 -99.7,-23.5"></path>
      </g>
      <g transform="scale(1.22136)" id="g370">
        <path id="path372" style="fill:#371a45;fill-opacity:1;fill-rule:nonzero;stroke:none" d="m 13361.9,15628.9 c -116.1,152.1 -229.4,300 -343,448.6 0.2,3.4 1.2,7.3 1.6,11 132.3,-15.8 264.8,-32 398.6,-48 -2.5,-144.1 -23.8,-276.2 -57.2,-411.6 z m -69.7,-212.4 c -68.6,-162 -158.7,-309.3 -287,-431.4 -99,-93.6 -211.4,-168.8 -329.6,-235.6 -320.8,-181 -664.6,-306 -1016.1,-411.5 -17.2,-4.9 -27.6,-4 -39,11.7 -24.5,34.9 -52,68.5 -78,102.9 -1.8,1.9 -2.3,5.1 -4.8,11.3 9,7.2 18.6,14.3 28.3,21.7 200.6,154 402.2,307.6 602.8,461.9 58,44 60.5,119.6 6.8,163.3 -37.5,30.7 -86.9,30.2 -130.1,-2.3 -120.7,-92 -241.1,-184.2 -361.6,-276.6 -89.7,-68.6 -178.8,-137.1 -272.1,-208.6 -32.1,41.8 -63,80 -90.8,120.2 -4.8,7.2 0.1,25.3 6.5,34.3 107,159.5 213,319.9 324.2,476.7 110.2,155.7 235.3,299.5 373,431.4 129,124.8 268.9,234.9 438,300.4 108.4,42.3 220.3,70.9 335.9,83.3 10.5,1.6 25.6,-9 33.1,-18.7 117.5,-151.9 233.6,-304 350,-456.5 34.9,-45.3 69.4,-91.6 105.4,-136.4 10.7,-13.6 12,-25.1 5.1,-41.5 z m -787.1,-1159.7 c -38.4,-122.3 -111.6,-221.9 -201.6,-310.7 -112,-109.2 -242.5,-190.5 -383.4,-264.8 -8.6,173.2 -17.2,342.6 -25.8,508.7 213.2,82.8 421.6,163.8 631.1,245.2 8.1,-57.7 -1.8,-118.9 -20.3,-178.4 z m -1268.4,775 c -150.8,49.2 -307.2,100.1 -467.7,152.4 165.9,176.4 341.5,330.4 578,395.4 102.2,28.1 220.3,25.7 290,-2.6 -132.4,-180.7 -265.1,-361.4 -400.3,-545.2 z m 2373.4,815.2 c 11.7,101.9 25.2,205.1 5.2,308.7 -8.9,11.3 -17.1,22.8 -26,34.1 -29.6,10.6 -58.3,24.6 -89,32.3 -216.3,55.8 -435.5,77.9 -658.2,58.7 -290.5,-25 -557,-114.6 -786.2,-299.2 -83,-66.6 -158.7,-141.8 -236.1,-214.8 -20.8,-19.8 -36.8,-28 -66,-14.6 -68.6,31.2 -142.5,45.1 -217.6,48.9 -201.3,9 -380.9,-56 -548.5,-161.2 -181.6,-114.4 -328,-267.3 -464.3,-431 -58,-69.3 -35.5,-146.7 50.9,-175.8 54.5,-17.8 109,-35.3 163.6,-53.1 130.5,-42.2 260.9,-84.2 391.2,-126.4 -0.4,-4.1 0,-6.2 -0.6,-8.1 -1.1,-2.6 -2.2,-5.5 -3.9,-8 -54.4,-69.9 -41.2,-134.6 16.1,-195.2 6.1,-6.8 11.4,-14.8 16.8,-22.1 30,-39.5 60.7,-79.4 92.5,-120.5 -43.4,-33.5 -86.1,-62 -123.8,-96.4 -19,-17.3 -35.9,-42.5 -43,-67.4 -12.3,-40.3 8.6,-81.5 44.5,-102.6 38,-22.9 77.1,-22 112.5,3.6 44.8,31.9 87.7,66.5 133.4,101.4 43.2,-56.9 84,-110.6 125,-163.7 47,-60.5 79.4,-70.8 152.2,-50.7 13.3,4.2 26.4,7 42,10.8 1.1,-15.5 2.3,-28.1 3,-39.8 9.2,-188.4 17.8,-377 28.2,-564.8 4.7,-89.1 75,-131.2 155.4,-93 72.7,34.3 145.3,70.5 216.5,109.2 164.2,89.2 313.5,198.6 432.7,343.9 149.1,183 231.7,387.4 193,628.8 -1.6,9.5 6.3,25.7 14.6,30.7 73.2,47.1 148.4,91.3 221.6,138.8 165.6,107.9 298.7,248.1 402.7,415.6 141.5,227.6 219.6,477.5 249.6,742.9"></path>
      </g>
      <g transform="scale(1.20421)" id="g374">
        <path id="path376" style="fill:#ffffff;fill-opacity:1;fill-rule:nonzero;stroke:none" d="m 13119.3,15442.6 c -155.7,-117.2 -375.7,-88.5 -492.6,64.9 -117.5,153.2 -87.8,373.1 66.2,491.9 151.3,116.4 371.5,86.4 489.4,-66.9 116.7,-152.3 88.3,-375.5 -63,-489.9 z m 357,235.5 c -36.5,45.4 -71.5,92.4 -106.9,138.3 -118,154.8 -235.9,309 -355,463.1 -7.6,9.8 -22.9,20.5 -33.6,18.9 -117.2,-12.5 -230.7,-41.6 -340.6,-84.4 -171.6,-66.5 -313.4,-178.2 -444.3,-304.7 -139.7,-133.8 -266.5,-279.7 -378.2,-437.6 -112.9,-159 -220.4,-321.7 -328.9,-483.5 -6.5,-9.1 -11.4,-27.5 -6.6,-34.8 28.2,-40.7 59.5,-79.5 92.1,-121.9 94.6,72.6 185,142 276,211.6 122.2,93.7 244.3,187.2 366.7,280.6 43.9,32.9 93.9,33.4 132,2.3 54.4,-44.3 51.9,-121.1 -6.9,-165.7 -203.5,-156.5 -407.9,-312.2 -611.4,-468.4 -9.9,-7.6 -19.6,-14.7 -28.7,-22 2.6,-6.3 3.1,-9.6 4.9,-11.5 26.3,-34.9 54.2,-69 79,-104.3 11.6,-16 22.2,-16.9 39.6,-11.9 356.5,107 705.2,233.7 1030.6,417.3 119.9,67.8 233.9,144 334.3,239 130.1,123.8 221.5,273.2 291.1,437.5 7,16.7 5.6,28.3 -5.2,42.1"></path>
      </g>
      <g transform="scale(1.20552)" id="g378">
        <path id="path380" style="fill:#db2c2c;fill-opacity:1;fill-rule:nonzero;stroke:none" d="m 13537.5,15834.4 c -117.7,153.8 -232.6,303.8 -347.5,454.4 0.3,3.6 1.1,7.3 1.6,11.2 133.9,-16.3 268.2,-32.6 404,-48.8 -2.6,-145.9 -24.3,-279.8 -58.1,-416.8"></path>
      </g>
      <g transform="scale(1.1695)" id="g382">
        <path id="path384" style="fill:#db2c2c;fill-opacity:1;fill-rule:nonzero;stroke:none" d="m 12153.3,16267.7 c -138.5,-188.6 -277.1,-377.4 -418.2,-569.4 -157.7,51.5 -321,104.6 -488.6,159.2 173.5,184.4 356.8,345.3 603.8,412.9 106.6,29.6 229.8,27 303,-2.7"></path>
      </g>
      <g transform="scale(1.08164)" id="g386">
        <path id="path388" style="fill:#db2c2c;fill-opacity:1;fill-rule:nonzero;stroke:none" d="m 13892.6,15747.6 c -126.4,-123.2 -273.5,-215.2 -432.8,-298.9 -9.7,195.4 -19.4,386.7 -29,574.3 240.8,93.6 476,184.8 712.8,277 9.2,-65.3 -2.3,-134.2 -23.1,-201.7 -43.1,-138.2 -125.9,-250.5 -227.9,-350.7"></path>
      </g>
      <g transform="scale(1.19061)" id="g390">
        <path id="path392" style="fill:#371a45;fill-opacity:1;fill-rule:nonzero;stroke:none" d="m 13163.1,15749.9 c -79.7,-60.3 -196.7,-44.4 -258.8,35.2 -64.2,82.1 -46.7,202.7 38.3,265.8 79.6,59.7 198.8,42.4 258.8,-37.6 62.7,-83.2 45.4,-200.1 -38.3,-263.4 z m 169.8,364.7 c -119.2,155 -341.9,185.4 -494.9,67.6 -155.8,-120.1 -185.8,-342.6 -67,-497.5 118.2,-155.1 340.8,-184.1 498.2,-65.6 153,115.7 181.8,341.5 63.7,495.5"></path>
      </g>
      <g transform="scale(1.17676)" id="g394">
        <path id="path396" style="fill:#22a7f0;fill-opacity:1;fill-rule:nonzero;stroke:none" d="m 13317.9,15935.3 c -80.6,-61 -199,-45 -262,35.7 -64.6,82.9 -47.1,204.8 38.9,268.7 80.7,60.3 201.2,42.9 261.8,-37.9 63.4,-84.3 46.2,-202.6 -38.7,-266.5"></path>
      </g>
      <g transform="scale(2.02984)" id="g398">
        <path id="path400" style="fill:#ffffff;fill-opacity:1;fill-rule:nonzero;stroke:none" d="m 6287.78,14536 c 140.65,184.7 224.31,415.1 224.31,665.1 0,606.9 -492.01,1098.9 -1098.91,1098.9 -606.89,0 -1098.88,-492 -1098.88,-1098.9 0,-606.9 491.99,-1098.9 1098.88,-1098.9 168.83,0 328.7,38.2 471.61,106.2 l 494.23,-165.4 -91.24,493"></path>
      </g>
      <g transform="scale(2.0191)" id="g402">
        <path id="path404" style="fill:#ffffff;fill-opacity:1;fill-rule:nonzero;stroke:none" d="m 6406.26,15608.7 c -189.05,337.4 -550,565.5 -964.29,565.5 -414.25,0 -775.22,-228.1 -964.27,-565.4 136.46,401.5 517.19,691.2 964.27,691.2 447.08,0 827.79,-289.7 964.29,-691.3"></path>
      </g>
      <g transform="scale(2.04058)" id="g406">
        <path id="path408" style="fill:#371a45;fill-opacity:1;fill-rule:nonzero;stroke:none" d="m 5853.83,14219.4 c 9.17,0 18.33,-1.5 27.2,-4.4 l 353.63,-118.4 -64.3,347.3 c -4.41,23.8 1.42,48.3 16.12,67.6 134.48,176.5 205.58,387.4 205.58,609.6 0,555.5 -451.93,1007.4 -1007.36,1007.4 -555.45,0 -1007.35,-451.9 -1007.35,-1007.4 0,-555.4 451.92,-1007.3 1007.35,-1007.3 151.19,0 296.63,32.7 432.28,97.3 11.61,5.5 24.21,8.3 36.85,8.3 m 491.63,-336 c -9.12,0 -18.33,1.4 -27.2,4.4 l -459.53,153.8 c -149.66,-65.9 -308.93,-99.3 -474.03,-99.4 -650.03,0 -1178.87,528.9 -1178.87,1178.9 0,650.1 528.84,1178.9 1178.87,1178.9 650.06,0 1178.88,-528.8 1178.88,-1178.9 0,-247.2 -75.17,-482.4 -217.78,-682.5 l 84,-453.9 c 5.49,-29.8 -5.15,-60.4 -28.08,-80.3 -15.83,-13.8 -35.92,-21 -56.26,-21"></path>
      </g>
      <g transform="scale(1.88125)" id="g410">
        <path id="path412" style="fill:#b9afbe;fill-opacity:1;fill-rule:nonzero;stroke:none" d="m 6762.67,15290.5 -383.57,128.4 c -9.62,3.2 -19.56,4.8 -29.5,4.8 -13.72,0 -27.38,-3.1 -39.98,-9.1 -147.13,-70 -304.9,-105.5 -468.88,-105.5 -568.17,0 -1036.47,435.9 -1087.97,990.9 142.42,-343.3 423.07,-627.8 800.28,-763.9 153.41,-55.4 310.22,-81.6 464.38,-81.6 241.17,0 475.95,64.2 681.24,181.7 l 64,-345.7"></path>
      </g>
      <g transform="scale(1.91415)" id="g414">
        <path id="path416" style="fill:#371a45;fill-opacity:1;fill-rule:nonzero;stroke:none" d="m 6764.57,14891.8 -524.1,175.4 c -151.55,-72.2 -321.08,-112.6 -500.11,-112.6 -643.58,0 -1165.3,521.7 -1165.3,1165.3 0,61.2 4.79,121.4 13.9,180.1 17.23,-96.4 44.86,-190.3 82.13,-280.1 50.61,-545.5 510.87,-973.9 1069.27,-973.9 161.16,0 316.22,34.9 460.83,103.7 12.38,5.9 25.8,8.9 39.28,8.9 9.77,0 19.54,-1.6 29,-4.7 l 376.98,-126.2 -62.9,339.8 c 31.4,17.9 62.01,37.1 91.89,57.5 -2.55,-3.5 -5.01,-7 -7.62,-10.5 l 96.75,-522.7"></path>
      </g>
      <g transform="scale(1.94325)" id="g418">
        <path id="path420" style="fill:#ff0068;fill-opacity:1;fill-rule:nonzero;stroke:none" d="m 6019.54,16200.7 v 0 c -99.32,99.3 -260.39,81.5 -359.71,-17.8 l -15.49,-15.5 -15.43,15.5 c -99.32,99.3 -260.39,117.1 -359.76,17.8 -99.32,-99.4 -99.32,-260.4 0,-359.8 l 15.49,-15.4 312.31,-312.3 c 26.19,-26.2 68.65,-26.2 94.84,0 l 312.31,312.3 15.44,15.4 c 99.37,99.4 99.37,260.4 0,359.8"></path>
      </g>
    </g>
  </g>
</svg>