<svg viewBox="0 0 226 172" width="226px" height="172px" xmlns="http://www.w3.org/2000/svg">
  <defs></defs>
  <g transform="matrix(0.1, 0, 0, -0.1, -40.677219, 186.447311)" id="g10">
    <g transform="scale(0.1)" id="g12">
      <g transform="scale(1.65629)" id="g18">
        <path id="path20" style="fill:#ebf3fa;fill-opacity:1;fill-rule:nonzero;stroke:none" d="m 15981.9,5836.3 c -160.3,-476.48 -508.2,-978.87 -1106.2,-1461.88 -216.7,-174.97 -398,-362.56 -554.9,-556.36 -231.9,-286.49 -410.5,-586.5 -571.3,-879.74 C 13007.3,1584.63 12646.4,377.109 9186.93,1332.8 7812.17,1712.56 7522.96,1212.53 6032.81,959.374 c -43.77,-7.365 -88.54,-14.611 -134.4,-21.615 -413.41,-62.85 -781.15,-53.914 -1107.42,12.86 -412.91,84.531 -759.43,261.611 -1048.17,502.931 -572.7,478.84 -918.15,1210.42 -1103.42,1974.17 -68.02,280.27 -114.45,564.76 -142.59,842.73 -16,157.89 -25.34,306.71 -28.7,447.27 -12.01,495.2 49.79,887.4 153.44,1211.62 0.07,0.06 0.07,0.06 0.07,0.06 12.83,40.15 26.3,79.28 40.33,117.39 15.24,41.48 31.19,81.68 47.7,120.87 l 0.19,0.38 c 400.2,947.37 1154.99,1272.75 1168.4,2179.09 35.5,2400.27 1845.7,2816.97 3282.11,2535.37 3043.45,-596.7 2951.35,626.2 5136.65,292.8 4001,-610.4 1238.7,-2197.29 2913.9,-3164.35 668.9,-386.1 1089.1,-1229.24 771,-2174.65"></path>
      </g>
      <g transform="scale(1.62396)" id="g22">
        <path id="path24" style="fill:#cadafc;fill-opacity:1;fill-rule:nonzero;stroke:none" d="M 16300,5952.48 C 16136.5,5466.5 15781.7,4954.12 15171.8,4461.49 13116.7,2801.66 14179.5,30.6662 9369.79,1359.33 7926.54,1758.04 7656.33,1205.94 6015.82,956.425 3614.24,591.209 2724.2,2601.91 2546.51,4355.46 c -80.97,798.91 5.45,1369.61 168.43,1811.69 l 48.65,123.28 0.19,0.38 c 0,0 535.71,54.09 730.04,-403.98 0,0 174.91,282.59 505.27,184.37 330.37,-98.22 259.12,-370.33 259.12,-370.33 0,0 513.62,357.64 971.66,-110.1 458.04,-467.75 181.38,-1133.65 181.38,-1133.65 0,0 427.54,29.43 557.09,-296.19 0,0 614.2,266.82 1000.23,-87.75 386.03,-354.5 792.01,-683.51 792.01,-683.51 0,0 437.21,-111.46 404.32,-655.62 0,0 323.04,246.19 773.36,116.63 0,0 77.46,560.54 846.94,681.91 769.4,121.31 1115,-85.96 1115,-85.96 0,0 12,512.2 604.1,567.01 0,0 -16.9,793.37 864.1,877.6 881,84.12 1065.3,-377.78 1065.3,-377.78 0,0 113.7,368.3 709.6,343.92 0,0 116.6,680.49 893.9,645.39 0,0 181.4,340.65 570.1,224.02 0,0 274.7,461.68 692.7,225.69"></path>
      </g>
      <g transform="scale(1.45518)" id="g26">
        <path id="path28" style="fill:#eef4ff;fill-opacity:1;fill-rule:nonzero;stroke:none" d="M 16300,4345.72 C 14817.4,2514.54 15247.1,193.654 10456.6,1517 8845.93,1961.96 8544.39,1345.82 6713.59,1067.36 4033.46,659.783 3040.18,2903.7 2841.88,4860.64 c -82.41,813.1 -9.46,1414.4 141.98,1888.16 0.08,0.07 0.08,0.07 0.08,0.07 0,0 496.78,-257.29 475.1,-669.34 0,0 477.12,155.31 856.58,-177.16 0,0 553.02,408.34 1290.4,0 737.3,-408.33 292.7,-1258.81 292.7,-1258.81 0,0 412.06,-16.98 509.66,-429.02 0,0 528.02,319.2 876.64,-122.39 343.39,-434.8 32.23,-1125.16 -546.78,-1290.7 126.01,31.4 669.52,134.96 963.09,-332.68 0,0 485.44,498.77 989.57,0 0,0 556.84,179.43 787.19,-313.98 0,0 333.98,592.78 1021.01,375.9 687,-216.88 710,-708.44 710,-708.44 0,0 180.3,361.4 635.3,260.25 0,0 -170.2,853.02 727.9,1069.9 0,0 88.4,694 861.9,636.14 0,0 296.5,319.96 643.5,232.27 0,0 1031.3,1068.26 2222.3,324.91"></path>
      </g>
      <g transform="scale(1.20805)" id="g30">
        <path id="path32" style="fill:#163560;fill-opacity:1;fill-rule:nonzero;stroke:none" d="m 15998.2,12692.4 c 0,0 -220.1,224.2 -628.8,56.4 -408.7,-167.7 -289.6,-620.9 -610.1,-515.1 -320.6,105.9 -632,94.6 -659.6,-181.3 -41.1,-409 -235.1,-254.3 -361.8,-621.9 -114.2,-331.3 16.8,-478.3 258.2,-377.8 344,143.4 80,-219.7 566.8,-286.9 486.9,-67.2 1075.5,349.9 1164.4,636.6 88.9,286.7 226.7,442.4 331.7,560 105.1,117.7 241,499.1 -60.8,730"></path>
      </g>
      <g transform="scale(1.03078)" id="g34">
        <path id="path36" style="fill:#163560;fill-opacity:1;fill-rule:nonzero;stroke:none" d="m 15836.9,11332 -12.2,-109.9 c -3.4,-30.5 11.6,-60.3 38.2,-75.8 l 168.9,-99.2 c 32.4,-19.1 70.8,-25.2 107.4,-17.1 l 160.8,35.2 -463.1,266.8"></path>
      </g>
      <g transform="scale(1.18155)" id="g38">
        <path id="path40" style="fill:#d86036;fill-opacity:1;fill-rule:nonzero;stroke:none" d="m 15153.7,9405.76 -457.9,263.76 c -41.9,24.18 -56.5,78.3 -32.3,120.28 l 900.5,1563.4 c 89.5,155.3 379.9,365.7 535.2,276.2 l 45.1,-25.9 c 155.7,-89.7 119.6,-447 29.8,-602.8 L 15274,9438.11 c -24.1,-41.98 -78.3,-56.54 -120.3,-32.35"></path>
      </g>
      <g transform="scale(1.17802)" id="g42">
        <path id="path44" style="fill:#d86036;fill-opacity:1;fill-rule:nonzero;stroke:none" d="m 15211.1,11912.5 1088.9,-13.5 -1414.7,-2240.72 -592.1,169.61 917.9,2084.61"></path>
      </g>
      <g transform="scale(1.11387)" id="g46">
        <path id="path48" style="fill:#f77d48;fill-opacity:1;fill-rule:nonzero;stroke:none" d="m 15084.1,10239.8 -485.7,279.8 c -44.6,25.6 -60,83 -34.3,127.6 l 955.2,1658.3 c 94.9,164.8 403,388 567.8,293.1 l 47.7,-27.5 c 165.2,-95.2 126.9,-474.2 31.7,-639.4 l -954.9,-1657.6 c -25.6,-44.5 -83,-60 -127.5,-34.3"></path>
      </g>
      <g transform="scale(1.01381)" id="g50">
        <path id="path52" style="fill:#f8fbff;fill-opacity:1;fill-rule:nonzero;stroke:none" d="m 16300,11232 -7.1,-10.6 -70.3,-105.5 -6366.64,-9548.55 c -71.5,-12.03 -144.65,-23.86 -219.57,-35.31 -675.39,-102.68 -1276.19,-88.08 -1809.22,21.01 -674.58,138.1 -1240.71,427.4 -1712.42,821.66 l 2410.95,2156.81 4119.1,3685.11 796.8,712.76 2686.7,2403.51 94.1,-55.3 c 0,-0.1 0,-0.1 0,-0.1 l 3.1,-1.7 74.5,-43.8"></path>
      </g>
      <g transform="scale(1.11177)" id="g54">
        <path id="path56" style="fill:#233862;fill-opacity:1;fill-rule:nonzero;stroke:none" d="m 16300,7741.24 c 0,0 -262.6,-37.78 -527.3,-255.72 -142,-116.84 -325.2,-236.74 -370.7,-182.77 -22,26 -37.1,196.26 151.2,321.29 180.5,119.99 138.3,373.46 314.6,404.31 120.4,21.05 117,-100.56 404.9,9.53 l 27.3,-296.64"></path>
      </g>
      <g transform="scale(1.24163)" id="g58">
        <path id="path60" style="fill:#f99746;fill-opacity:1;fill-rule:nonzero;stroke:none" d="m 16254.6,7573.26 c -45.4,-402.46 -1818.7,-734.28 -1818.7,-734.28 0,0 -51,238.32 92,356.15 0,0 405.6,297.83 593.4,412.44 223.6,136.35 386.9,159.22 386.9,159.22 -2.7,15.71 -67.1,39.15 -163.6,69.83 h -0.2 c -299.4,94.96 -907.7,258.81 -948.1,475.98 -3.7,19.76 -4.9,40.95 -4,63.26 11.3,300.34 407.4,797.13 407.4,797.13 l 386.1,133.85 c 0,0 57.3,-425.77 188.6,-528.58 131.3,-102.7 925.6,-802.47 880.2,-1205"></path>
      </g>
      <g transform="scale(1.16885)" id="g62">
        <path id="path64" style="fill:#ed7d2b;fill-opacity:1;fill-rule:nonzero;stroke:none" d="m 16300,8324.57 h -0.2 c -318,100.87 -964.2,274.92 -1007.1,505.62 -3.9,20.99 -5.2,43.5 -4.3,67.19 39,89.56 113.5,174.85 209.1,204.02 190.7,58.19 162.6,-367.85 374.1,-496.41 211.7,-128.56 428.4,-280.42 428.4,-280.42"></path>
      </g>
      <g transform="scale(1.33963)" id="g66">
        <path id="path68" style="fill:#ffb27d;fill-opacity:1;fill-rule:nonzero;stroke:none" d="m 14466.5,10376.8 c 0,0 963.5,271.9 1104.2,333.6 140.6,61.8 596.7,658.2 596.7,658.2 l 132.6,-77.5 c 0,0 -142.9,-557.1 -555.1,-844.2 -160.9,-112 -1066.5,-467.29 -1066.5,-467.29 l -211.9,397.19"></path>
      </g>
      <path id="path70" style="fill:#233862;fill-opacity:1;fill-rule:nonzero;stroke:none" d="m 15080,7526.6 c 0,0 -189.5,-200.2 -266.3,-389.8 -76.8,-189.5 -189.3,-405.2 -262.6,-377.1 -35.3,13.5 -141.5,171.1 -25.6,393.9 111.3,213.8 -66,437.8 89.1,562.6 105.9,85.2 167.8,-35 388.8,226.9 l 76.6,-416.5"></path>
      <g transform="scale(1.16122)" id="g72">
        <path id="path74" style="fill:#f99746;fill-opacity:1;fill-rule:nonzero;stroke:none" d="m 16300,9790.14 c 0,0 -1190.7,-1511.61 -1712.2,-1979.05 -276.9,-248.19 -1590.4,-1346.26 -1590.4,-1346.26 0,0 -90.3,89.22 -117.9,166.72 -54.4,152.26 -8.7,245.43 -8.7,245.43 0,0 560.3,1093.43 1091.7,1408.09 368.4,218.05 592.8,1576.89 1383.4,2041.73 790.7,464.8 954.1,-536.66 954.1,-536.66"></path>
      </g>
      <g transform="scale(1.22914)" id="g76">
        <path id="path78" style="fill:#739af0;fill-opacity:1;fill-rule:nonzero;stroke:none" d="m 15996.1,10151.9 c -351.3,-719.56 -443.4,-1059.51 -567.4,-1133.42 -123.9,-73.82 -1318.5,101.86 -1418.6,281.89 -26.4,47.71 -17.9,101.82 12.4,160.94 0,0 0,0 0.1,0.1 83.8,164.16 334.4,366.71 464.2,575.79 84.4,135.8 146.1,254 191.1,357.1 220.5,504.2 41,645.3 148.1,711.7 187.7,116.2 1063,371.9 1338.9,277.6 135.1,-46.1 -37.6,-324.4 -25.1,-553.7 15.6,-287.9 -33.3,-451.9 -143.7,-678"></path>
      </g>
      <g transform="scale(1.12239)" id="g80">
        <path id="path82" style="fill:#ffb27d;fill-opacity:1;fill-rule:nonzero;stroke:none" d="m 16178.7,12121.9 c 0,0 -873.9,-599.4 -1064.6,-912.9 -190.8,-313.5 -469.8,-1045.4 -469.8,-1045.4 0,0 9.9,-47 175.5,-19.1 0,0 546.6,820.8 632.6,903.3 86.2,82.5 847.6,500.6 847.6,500.6 l -121.3,573.5"></path>
      </g>
      <g transform="scale(1.24231)" id="g84">
        <path id="path86" style="fill:#739af0;fill-opacity:1;fill-rule:nonzero;stroke:none" d="m 16225,11001.2 c -36,-102.8 -112.5,-224 -253.9,-347.6 l -376.4,602.3 c 0,0 394.7,64.1 613.1,109.1 0,0 92.2,-149.3 17.2,-363.8"></path>
      </g>
      <g transform="scale(1.16029)" id="g88">
        <path id="path90" style="fill:#739af0;fill-opacity:1;fill-rule:nonzero;stroke:none" d="m 16300,11976.1 c 0,0 -402.3,-57.6 -709.1,-231.8 -127.2,-72.1 -455.1,-359.9 -455.1,-359.9 0,0 91.5,-299.2 467.7,-389.3 376.3,-90 296,632.1 296,632.1 l 400.5,348.9"></path>
      </g>
      <g transform="scale(1.3491)" id="g92">
        <path id="path94" style="fill:#ffb27d;fill-opacity:1;fill-rule:nonzero;stroke:none" d="m 16049.5,11282.9 c 0,0 52,309 117.7,305.1 65.6,-3.8 115.2,-107.1 124.1,-165.4 8.7,-58.4 -110.1,-216.6 -110.1,-216.6 l -131.7,76.9"></path>
      </g>
      <g transform="scale(1.0239)" id="g96">
        <path id="path98" style="fill:#ffb27d;fill-opacity:1;fill-rule:nonzero;stroke:none" d="m 16266.8,11085.2 c 0,0 33.2,-186.6 3.7,-261.9 -29.4,-75.2 -114.1,-134.7 -172.5,-130 -58.4,4.8 40.5,141.8 2.9,219.3 -37.6,77.4 -104,241.8 5.6,281.1 109.7,39.4 160.3,-108.5 160.3,-108.5"></path>
      </g>
      <g transform="scale(1.02625)" id="g100">
        <path id="path102" style="fill:#ffb27d;fill-opacity:1;fill-rule:nonzero;stroke:none" d="m 16208.2,11122.4 c 0,0 42.8,-119.5 67.3,-160.1 24.5,-40.7 -69.9,19.8 -93.2,58 -23.4,38.2 25.9,102.1 25.9,102.1"></path>
      </g>
      <g transform="scale(1.11495)" id="g104">
        <path id="path106" style="fill:#6385db;fill-opacity:1;fill-rule:nonzero;stroke:none" d="m 16294.1,11312 c -8.7,-185.8 -200.5,-544.3 -417.4,-613.7 -213.5,-68.2 -411.8,-261.8 -418,-267.9 92.5,181 368.7,404.3 511.8,634.8 93,149.7 161.1,280 210.7,393.6 51.4,5.7 118.8,-18.6 112.9,-146.8"></path>
      </g>
      <g transform="scale(1.14519)" id="g108">
        <path id="path110" style="fill:#d86036;fill-opacity:1;fill-rule:nonzero;stroke:none" d="m 16209.6,11456.4 c -111.6,-337.3 -420.5,-471.1 -549.4,-513.3 -26.3,-8.6 -45.1,-13.4 -53.2,-15.3 l -3.7,-0.9 -34.3,154.2 c 1.2,0.2 43.4,10.1 103.2,35.6 h 0.1 c 120.7,51.3 313.3,165.3 387.5,389.4 102.4,309.5 -159.6,526.1 -193.1,552.1 63.8,17.9 127.8,31.2 187,40.9 123.5,-136.6 246.3,-370 155.9,-642.7"></path>
      </g>
      <g transform="scale(1.22531)" id="g112">
        <path id="path114" style="fill:#d86036;fill-opacity:1;fill-rule:nonzero;stroke:none" d="m 15697.5,11345.9 c 0,0 404.8,-52.4 495.1,-544.6 0,0 89.2,32 107.4,107.4 0,0 -110.9,437 -536.2,514.3 -24.6,4.5 -125.5,31 -125.5,31 l -3.9,-22.9 c 0,0 2,-58.3 5,-65.3 2.9,-7 58.1,-19.9 58.1,-19.9"></path>
      </g>
      <g transform="scale(1.18121)" id="g116">
        <path id="path118" style="fill:#ffb27d;fill-opacity:1;fill-rule:nonzero;stroke:none" d="m 15817.6,11729.3 c 33.8,86.4 62.4,214.7 66.6,376.4 l 23.3,-5.3 392.5,-89.9 c 0,0 -12.7,-123.9 -16.4,-241 0,-0.9 0,-1.9 -0.1,-2.9 -12.5,-360 -493.9,-109.1 -465.9,-37.3"></path>
      </g>
      <g transform="scale(1.18121)" id="g120">
        <path id="path122" style="fill:#e8945b;fill-opacity:1;fill-rule:nonzero;stroke:none" d="m 16300,12010.5 c 0,0 0,0 -10.3,-123.7 -220.7,12.8 -337.6,100.5 -382.2,213.6 l 392.5,-89.9"></path>
      </g>
      <g transform="scale(1.19741)" id="g124">
        <path id="path126" style="fill:#ffb27d;fill-opacity:1;fill-rule:nonzero;stroke:none" d="m 16171.8,11850.8 c 0,0 -500.2,-126.4 -574.1,186.3 -74,312.7 -188.3,507 127.9,600.9 316.3,93.9 406.7,-10.7 456.8,-109 50,-98.4 117.6,-637.2 -10.6,-678.2"></path>
      </g>
      <g transform="scale(1.17188)" id="g128">
        <path id="path130" style="fill:#163560;fill-opacity:1;fill-rule:nonzero;stroke:none" d="m 16300,12976.1 c 0,0 -52.2,-408 -254.8,-514.1 -202.5,-106.2 -309.6,-70.4 -309.6,-70.4 0,0 134.4,170.2 114.8,407.6 0,0 301.6,330.4 449.6,176.9"></path>
      </g>
      <g transform="scale(1.19566)" id="g132">
        <path id="path134" style="fill:#163560;fill-opacity:1;fill-rule:nonzero;stroke:none" d="m 15948.8,12680.2 c 0,0 111.1,-14.1 170.6,-78.7 58.2,-63.1 115.9,-151.3 135.7,-271.5 0,0 44.9,274.1 -104.9,388 -158.8,120.7 -201.4,-37.8 -201.4,-37.8"></path>
      </g>
      <g transform="scale(1.19106)" id="g136">
        <path id="path138" style="fill:#ffffff;fill-opacity:1;fill-rule:nonzero;stroke:none" d="m 16115.5,12077.5 c 0,0 17.4,-35 108.3,-7.6 0,0 76.2,23 64.3,63.1 0,0 -81.9,11.4 -172.6,-55.5"></path>
      </g>
      <path id="path140" style="fill:#f8fbff;fill-opacity:1;fill-rule:nonzero;stroke:none" d="m 9993.75,10352.1 -19.99,-85.3 -89.2,-380.4 v -0.1 L 9622.2,8767.8 9140.29,6712.8 8643.44,4594.1 7935.26,1574.5 c -683.89,140 -1257.84,433.3 -1736.07,833 -948.56,793.1 -1520.72,2004.8 -1827.58,3269.8 l 5253.74,4869.6 1.26,-0.6 164.64,-87.1 20.2,-10.8 154.11,-81.4 2.62,-1.4 25.57,-13.5"></path>
      <path id="path142" style="fill:#233862;fill-opacity:1;fill-rule:nonzero;stroke:none" d="m 12146.1,6524.6 c 0,0 -357.8,-100.9 -685.5,-452.4 -175.7,-188.6 -408.2,-388.9 -481.4,-322.4 -35.2,32.1 -87.6,265.9 150.8,474.4 228.8,199.9 123.4,544.3 362.7,619.6 163.5,51.5 181.1,-118.1 560.7,88 l 92.7,-407.2"></path>
      <path id="path144" style="fill:#2a4e96;fill-opacity:1;fill-rule:nonzero;stroke:none" d="m 14030.9,8113.5 c -20.7,-574.4 -2010.7,-1811.1 -2010.7,-1811.1 0,0 -215.2,122.4 -208.2,588.1 0,0 647,913.6 1046.3,1225.9 63.8,49.9 63.7,146.4 -106.1,268.8 h -0.1 c -48.9,35.2 -111.7,72.6 -191.3,111.6 0,0 -756.8,367.8 -1221.6,675.9 -88.2,58.5 -165.8,114.8 -225.7,165.9 -21.6,18.4 860.9,1036.2 860.9,1036.2 l 545.8,189.2 c 0,0 203.6,-343.8 360.9,-572.3 133.6,-194.1 1171.8,-1264.6 1149.8,-1878.2"></path>
      <path id="path146" style="fill:#233862;fill-opacity:1;fill-rule:nonzero;stroke:none" d="m 12752.1,8385.2 c -48.9,35.2 -111.7,72.6 -191.3,111.6 0,0 -756.8,367.8 -1221.6,675.9 63.4,142.4 179.2,333.5 355.8,379.7 289.7,75.8 274.8,-435.7 433.8,-631.8 157.8,-194.6 616.2,-530.1 623.3,-535.4"></path>
      <path id="path148" style="fill:#163560;fill-opacity:1;fill-rule:nonzero;stroke:none" d="m 9638.91,10706.4 -14.29,-128.9 c -3.98,-35.9 13.51,-70.7 44.66,-89 l 198.21,-116.4 c 38.05,-22.3 83.12,-29.5 126.22,-20.1 l 188.59,41.4 -543.39,313"></path>
      <path id="path150" style="fill:#d86036;fill-opacity:1;fill-rule:nonzero;stroke:none" d="m 11438.3,10060.5 -615.9,354.8 c -56.5,32.5 -76.1,105.3 -43.6,161.8 l 1211.4,2103 c 120.4,208.9 511.1,491.9 720,371.6 l 60.5,-34.9 c 209.5,-120.7 160.9,-601.3 40.2,-810.8 l -1210.8,-2102 c -32.5,-56.5 -105.3,-76 -161.8,-43.5"></path>
      <path id="path152" style="fill:#d86036;fill-opacity:1;fill-rule:nonzero;stroke:none" d="m 11454.3,13384.6 1354.9,-38.9 -1791.8,-2984.4 -794.2,227.5 1231.1,2795.8"></path>
      <path id="path154" style="fill:#f77d48;fill-opacity:1;fill-rule:nonzero;stroke:none" d="m 10182.3,10393.4 -615.9,354.8 c -56.46,32.5 -76.05,105.3 -43.52,161.8 l 1211.42,2102.9 c 120.3,209 511,492 720,371.7 l 60.5,-34.9 c 209.5,-120.7 160.8,-601.3 40.2,-810.8 l -1210.9,-2102 c -32.5,-56.5 -105.3,-76 -161.8,-43.5"></path>
      <path id="path156" style="fill:#ffb27d;fill-opacity:1;fill-rule:nonzero;stroke:none" d="m 13117.3,13234.1 c 0,0 1469.4,414.7 1684,508.8 214.5,94.2 910.1,1003.8 910.1,1003.8 l 202.2,-118.1 c 0,0 -218,-849.7 -846.6,-1287.5 -245.5,-170.9 -1626.5,-712.7 -1626.5,-712.7 l -323.2,605.7"></path>
      <path id="path158" style="fill:#233862;fill-opacity:1;fill-rule:nonzero;stroke:none" d="m 8258.48,5992.9 c 0,0 -238.82,-252.4 -335.63,-491.3 -96.81,-239 -238.64,-510.9 -331.02,-475.5 -44.52,17 -178.42,215.7 -32.25,496.6 140.22,269.6 -83.26,551.9 112.2,709.2 133.54,107.5 211.63,-44 490.21,286.1 l 96.49,-525.1"></path>
      <path id="path160" style="fill:#2a4e96;fill-opacity:1;fill-rule:nonzero;stroke:none" d="m 12602.9,10350.9 c 0,0 -1574.1,-1998.3 -2263.5,-2616.3 -366.06,-328.1 -2102.65,-1779.7 -2102.65,-1779.7 0,0 -119.21,117.9 -155.76,220.3 -71.87,201.4 -11.46,324.5 -11.46,324.5 0,0 861.3,1552.2 1436.85,2131.4 471.35,474.3 790.02,1814.8 1835.22,2429.3 1045.2,614.5 1261.3,-709.5 1261.3,-709.5"></path>
      <path id="path162" style="fill:#f99746;fill-opacity:1;fill-rule:nonzero;stroke:none" d="m 13401.1,11343 c -382.4,-1053.2 -508.7,-1372.4 -708.5,-1402.1 -1566.9,-232.5 -2038.8,80.9 -2178.8,332.8 -37,66.8 53.5,243.7 162.5,374.1 0,0 0,0 0.1,0.1 117.4,229.8 468,513.2 649.6,805.8 118,190 204.4,355.5 267.5,499.7 308.5,705.5 57.4,903 207.3,995.9 262.6,162.6 1487.4,520.3 1873.5,388.5 189,-64.6 -52.7,-454.1 -35.2,-774.9 21.9,-402.9 -97.3,-832.6 -238,-1219.9"></path>
      <path id="path164" style="fill:#ffb27d;fill-opacity:1;fill-rule:nonzero;stroke:none" d="m 11727.4,12897.7 c 0,0 -1116.6,-766 -1360.4,-1166.5 -243.8,-400.6 -600.39,-1335.8 -600.39,-1335.8 0,0 12.81,-60.1 224.3,-24.5 0,0 698.49,1048.9 808.49,1154.3 110,105.4 1083,639.6 1083,639.6 l -155,732.9"></path>
      <path id="path166" style="fill:#f99746;fill-opacity:1;fill-rule:nonzero;stroke:none" d="m 14001.5,12967.5 c -50.9,-145.4 -159,-316.8 -359,-491.7 l -532.3,851.9 c 0,0 558.1,90.7 867.1,154.4 0,0 130.4,-211.2 24.2,-514.6"></path>
      <path id="path168" style="fill:#f99746;fill-opacity:1;fill-rule:nonzero;stroke:none" d="m 12585.8,13228.2 c 0,0 -531.5,-76.1 -936.8,-306.2 -168.1,-95.3 -601.2,-475.4 -601.2,-475.4 0,0 120.9,-395.3 617.9,-514.3 497,-118.9 391,834.9 391,834.9 l 529.1,461"></path>
      <path id="path170" style="fill:#ffb27d;fill-opacity:1;fill-rule:nonzero;stroke:none" d="m 15704.8,14737.8 c 0,0 79.8,474.5 180.6,468.6 100.9,-5.9 177.1,-164.5 190.6,-254.1 13.5,-89.6 -169,-332.6 -169,-332.6 l -202.2,118.1"></path>
      <path id="path172" style="fill:#ffb27d;fill-opacity:1;fill-rule:nonzero;stroke:none" d="m 10015.9,10330 c 0,0 38.6,-217.6 4.3,-305.3 -34.28,-87.7 -132.97,-157 -201.04,-151.5 -68.06,5.5 47.15,165.2 3.28,255.5 -43.87,90.3 -121.17,281.9 6.65,327.8 127.82,45.9 186.81,-126.5 186.81,-126.5"></path>
      <path id="path174" style="fill:#ffb27d;fill-opacity:1;fill-rule:nonzero;stroke:none" d="m 9991.06,10403.2 c 0,0 50.04,-139.7 78.64,-187.1 28.6,-47.5 -81.75,23.1 -108.97,67.7 -27.23,44.7 30.33,119.4 30.33,119.4"></path>
      <path id="path176" style="fill:#ed7d2b;fill-opacity:1;fill-rule:nonzero;stroke:none" d="m 11736.7,11766.9 c -10.9,-235.8 -254.4,-690.8 -529.7,-778.9 -271.1,-86.6 -522.7,-332.3 -530.6,-340.1 117.4,229.8 468,513.2 649.6,805.8 118,190 204.4,355.5 267.5,499.7 65.3,7.2 150.7,-23.8 143.2,-186.5"></path>
      <path id="path178" style="fill:#d86036;fill-opacity:1;fill-rule:nonzero;stroke:none" d="m 12187.6,12344.6 c -145.5,-439.7 -548.2,-614.1 -716.3,-669.2 -34.3,-11.1 -58.8,-17.4 -69.3,-19.9 l -5,-1.2 -44.5,201.1 c 1.5,0.2 56.5,13.2 134.5,46.3 h 0.2 c 157.3,66.9 408.4,215.6 505.1,507.8 133.5,403.5 -208.2,685.9 -251.8,719.8 83.2,23.2 166.6,40.6 243.8,53.2 161,-178 321.1,-482.3 203.3,-837.9"></path>
      <path id="path180" style="fill:#d86036;fill-opacity:1;fill-rule:nonzero;stroke:none" d="m 12951.8,13235.6 c 0,0 564.7,-73.1 690.7,-759.8 0,0 124.4,44.7 149.8,149.9 0,0 -154.7,609.5 -748,717.4 -34.4,6.2 -175.1,43.3 -175.1,43.3 l -5.4,-32 c 0,0 2.7,-81.3 6.9,-91.1 4.1,-9.7 81.1,-27.7 81.1,-27.7"></path>
      <path id="path182" style="fill:#ffb27d;fill-opacity:1;fill-rule:nonzero;stroke:none" d="m 12325.1,13181.4 c 45.4,116.3 83.9,288.8 89.6,506.2 l 31.3,-7.2 527.8,-120.8 c 0,0 -17,-166.7 -22,-324 0,-1.4 -0.1,-2.7 -0.1,-4 -16.9,-484.2 -664.3,-146.7 -626.6,-50.2"></path>
      <path id="path184" style="fill:#e8945b;fill-opacity:1;fill-rule:nonzero;stroke:none" d="m 12973.8,13559.6 c 0,0 0,0 -13.8,-166.3 -296.8,17.1 -454,135 -514,287.1 l 527.8,-120.8"></path>
      <path id="path186" style="fill:#ffb27d;fill-opacity:1;fill-rule:nonzero;stroke:none" d="m 13199.2,13604.4 c 0,0 -641.3,-279.2 -808.5,116.2 -167.2,395.3 -362.5,625.6 39.9,820.6 402.3,195 546.2,77.5 634.6,-40.8 88.5,-118.4 296.5,-813.2 134,-896"></path>
      <path id="path188" style="fill:#2c3a64;fill-opacity:1;fill-rule:nonzero;stroke:none" d="m 11941.8,14469.6 c -7.8,5.4 -23.3,7.5 -54.9,1.3 0,0 21,21.9 54.1,31.2 -4.5,45 -0.9,127.5 69,165.1 0,0 -34.7,-31.5 -28.2,-78.9 63.9,110.6 232.7,222.2 755.7,311.9 689.3,118.1 576.4,-371.1 502,-444.9 -74.4,-73.8 -330.5,11.8 -490.2,-42.5 -159.7,-54.3 -131,-297.7 -178.1,-344.1 -47.1,-46.3 -39.8,16.3 -123.2,31.2 -83.4,14.8 -59.1,-111 -17,-186.1 42,-75.1 -33.8,-207.5 -33.8,-207.5 0,0 0,0 -132.3,85.5 -132.2,85.5 -350.4,534.6 -328.8,647.6 1.9,9.9 3.8,20 5.7,30.2"></path>
      <g transform="scale(1.39713)" id="g190">
        <path id="path192" style="fill:#f8fbff;fill-opacity:1;fill-rule:nonzero;stroke:none" d="M 16300,3483.36 C 15420.1,1878.57 14992.2,447.061 10891,1580.03 c -1629.72,450.2 -1972.57,-142.58 -3739.14,-442.7 -51.88,-8.73 -104.96,-17.32 -159.33,-25.62 -490.09,-74.51 -926.05,-63.92 -1312.84,15.24 -489.5,100.21 -900.3,310.14 -1242.6,596.23 -678.93,567.66 -1088.46,1434.94 -1308.1,2340.37 -80.63,332.25 -135.67,669.51 -169.03,999.05 -18.97,187.17 -30.05,363.6 -34.03,530.23 0,0 819.28,-167.92 947.14,-839.65 0,0 188,74.29 368.71,-87.9 180.71,-162.12 30.12,-486.28 -225.89,-535.09 0,0 662.6,-78.81 572.25,-801.65 0,0 382.95,143.08 552.89,-233.41 0,0 561.47,542.11 1329.48,195.76 767.98,-346.35 730.33,-971.28 730.33,-971.28 0,0 362.38,286.09 753.4,45.17 391.09,-240.92 398.68,-481.92 398.68,-481.92 0,0 188.24,210.86 451.71,90.4 0,0 421.65,768.01 1453.17,444.2 0,0 250.1,199.12 535.7,18.39 285.6,-180.73 285.6,-395.31 285.6,-395.31 0,0 655.1,395.31 1242.4,-203.27 0,0 384,180.65 700.2,0 0,0 8.1,598.58 596.9,768 0,0 -66.2,598.52 679.3,677.61 745.3,79.01 993.8,-372.7 993.8,-372.7 0,0 338.1,571.03 1008.3,573.18"></path>
      </g>
    </g>
  </g>
</svg>